<svg width="91" height="95" viewBox="0 0 91 95" fill="none" xmlns="http://www.w3.org/2000/svg">
<path d="M69.0963 54.39L88.4563 35.58C89.3663 34.69 89.6963 33.39 89.2963 32.18C88.9063 30.97 87.8763 30.1 86.6163 29.92L59.8963 26.08L47.9863 1.85C47.4263 0.71 46.2863 0 45.0063 0C43.7363 0 42.5963 0.71 42.0263 1.85L30.1163 26.07L3.40626 29.91C2.14626 30.09 1.11626 30.96 0.72626 32.17C0.33626 33.38 0.65626 34.69 1.56626 35.57L20.9163 54.38L16.3163 80.98C16.0963 82.24 16.6063 83.48 17.6363 84.23C18.2163 84.65 18.8963 84.87 19.5863 84.87C20.1163 84.87 20.6463 84.74 21.1363 84.48L45.0063 71.89L68.8763 84.48C70.0063 85.07 71.3463 84.98 72.3763 84.23C73.4063 83.48 73.9163 82.24 73.6963 80.98L69.0963 54.39ZM70.7963 82.06C70.5863 82.21 70.3663 82.23 70.1363 82.11L45.6363 69.18C45.4363 69.08 45.2263 69.02 45.0063 69.02C44.7863 69.02 44.5763 69.07 44.3763 69.18L19.8763 82.11C19.6463 82.23 19.4263 82.22 19.2163 82.06C19.0063 81.91 18.9263 81.7 18.9663 81.44L23.6863 54.15C23.7663 53.71 23.6163 53.27 23.2963 52.96L3.43626 33.65C3.24626 33.47 3.19626 33.25 3.27626 33.01C3.35626 32.76 3.52626 32.62 3.78626 32.58L31.2063 28.63C31.6463 28.57 32.0263 28.29 32.2163 27.89L44.4463 3.04C44.5563 2.81 44.7463 2.69 45.0063 2.69C45.2663 2.69 45.4563 2.81 45.5663 3.04L57.7863 27.9C57.9863 28.3 58.3663 28.57 58.7963 28.64L86.2163 32.58C86.4763 32.62 86.6463 32.76 86.7263 33.01C86.8063 33.26 86.7563 33.47 86.5663 33.65L66.7063 52.95C66.3863 53.26 66.2463 53.71 66.3163 54.14L71.0363 81.43C71.0863 81.7 71.0063 81.9 70.7963 82.06ZM89.8563 66.71C89.6163 67.17 89.1463 67.43 88.6663 67.43C88.4563 67.43 88.2363 67.38 88.0463 67.28L80.1863 63.14C79.5263 62.79 79.2763 61.98 79.6263 61.32C79.9763 60.66 80.7863 60.41 81.4463 60.76L89.3063 64.9C89.9563 65.24 90.2063 66.05 89.8563 66.71ZM10.3963 61.32C10.7463 61.98 10.4863 62.79 9.83626 63.14L1.97626 67.28C1.76626 67.38 1.55626 67.43 1.34626 67.43C0.86626 67.43 0.39626 67.17 0.15626 66.71C-0.19374 66.05 0.0662599 65.24 0.71626 64.89L8.57626 60.75C9.23626 60.41 10.0463 60.66 10.3963 61.32ZM10.7963 10.8C10.2763 10.27 10.2763 9.42 10.7963 8.9C11.3163 8.38 12.1763 8.38 12.6963 8.9L19.1363 15.34C19.6563 15.87 19.6563 16.72 19.1363 17.24C18.8763 17.5 18.5263 17.63 18.1863 17.63C17.8463 17.63 17.4963 17.5 17.2363 17.24L10.7963 10.8ZM70.8663 17.25C70.3463 16.72 70.3463 15.87 70.8663 15.35L77.3063 8.91C77.8363 8.39 78.6863 8.39 79.2063 8.91C79.7263 9.44 79.7263 10.29 79.2063 10.81L72.7663 17.25C72.5063 17.51 72.1563 17.64 71.8163 17.64C71.4763 17.64 71.1263 17.51 70.8663 17.25ZM46.3463 84.76V93.51C46.3463 94.25 45.7463 94.85 45.0063 94.85C44.2663 94.85 43.6663 94.25 43.6663 93.51V84.76C43.6663 84.02 44.2663 83.42 45.0063 83.42C45.7463 83.42 46.3463 84.02 46.3463 84.76Z" fill="#4F2683"/>
</svg>
