<svg width="224" height="54" viewBox="0 0 224 54" fill="none" xmlns="http://www.w3.org/2000/svg"><script xmlns=""/>
<path d="M49.1754 48.2891H52.0222V47.498H49.1754V45.0559H52.988V44.2419H48.3107V51.9776H53.1996V51.1773H49.1754V48.2937V48.2891ZM62.8485 46.3621C62.8485 44.9915 61.8873 44.2419 60.1396 44.2419H57.5273V51.9776H58.3828V48.5696H60.1626L62.0206 51.9776H62.9956L61.064 48.4685C62.246 48.2201 62.8485 47.5118 62.8485 46.3667V46.3621ZM60.089 47.7832H58.3782V45.0421H60.0752C61.409 45.0421 61.9792 45.4468 61.9792 46.3897C61.9792 47.3325 61.4136 47.7832 60.0844 47.7832H60.089ZM69.9587 47.6544C68.3628 47.1439 67.8983 46.8726 67.8983 46.0631C67.8983 45.3595 68.5284 44.8858 69.462 44.8858C70.3956 44.8858 71.0533 45.3089 71.4028 46.2195L71.4304 46.2885L72.1662 45.9436L72.1479 45.8838C71.8581 45.0651 71.159 44.0947 69.4758 44.0947C68.0914 44.0947 67.0475 44.9639 67.0475 46.1137C67.0475 47.3739 67.8569 47.8522 69.5586 48.3857C71.2234 48.9146 71.504 49.3193 71.504 50.0275C71.504 50.8324 70.8095 51.3383 69.6919 51.3383C68.6341 51.3383 67.9075 50.8002 67.5809 49.7838L67.558 49.7148L66.7853 49.9953L66.8037 50.0551C67.1808 51.3475 68.2478 52.1155 69.6643 52.1155C71.2602 52.1155 72.3732 51.2325 72.3732 49.9724C72.3732 48.7122 71.4902 48.1327 69.9633 47.6498L69.9587 47.6544ZM15.2984 49.2411C15.2984 50.584 14.5994 51.3199 13.3346 51.3199C12.0699 51.3199 11.357 50.5564 11.357 49.2181V44.2419H10.4924V49.3423C10.4924 51.0485 11.5778 52.1109 13.3208 52.1109C15.0639 52.1109 16.1631 51.0163 16.1631 49.3193V44.2419H15.2984V49.2411ZM40.9614 50.768L38.7308 44.2465H37.8386L40.5429 51.9684L40.5613 52.0144H41.3477L44.0658 44.2465H43.2149L40.9752 50.768H40.9614ZM76.8435 51.9776H77.7082V44.2419H76.8435V51.9776ZM26.2259 50.3817L22.1373 44.2741L22.1189 44.2419H21.2359V51.9776H22.0591V45.6446L26.2811 51.95L26.2995 51.9822H27.0491V44.2465H26.2259V50.3863V50.3817ZM32.5726 51.9776H33.4373V44.2419H32.5726V51.9776ZM168.821 44.2557L168.802 44.2097H167.827L164.971 51.8856L164.939 51.9776H165.795L166.655 49.6412H169.925L170.766 51.9362L170.785 51.9822H171.695L168.825 44.2603L168.821 44.2557ZM166.94 48.8594L168.287 45.1985L169.635 48.8594H166.94ZM81.5484 45.0605H84.0043V51.9822H84.8689V45.0605H87.3249V44.2465H81.5484V45.0605ZM147.628 44.2143H146.653L143.797 51.8902L143.765 51.9822H144.62L145.48 49.6458H148.75L149.592 51.9408L149.61 51.9868H150.521L147.651 44.2649L147.633 44.2189L147.628 44.2143ZM145.766 48.8594L147.113 45.1985L148.461 48.8594H145.766ZM138.255 50.3863L134.167 44.2741L134.148 44.2419H133.265V51.9776H134.088V45.6446L138.31 51.95L138.329 51.9822H139.078V44.2465H138.255V50.3863ZM157.254 44.2465H155.263V51.9822H157.254C159.77 51.9822 161.099 50.6392 161.099 48.1051C161.099 45.571 159.77 44.2465 157.254 44.2465ZM157.36 51.2095H156.114V45.0375H157.342C159.278 45.0375 160.257 46.0677 160.257 48.1005C160.257 50.1333 159.31 51.2049 157.36 51.2049V51.2095ZM125.645 44.2143H124.67L121.813 51.8902L121.781 51.9822H122.637L123.497 49.6458H126.767L127.608 51.9408L127.627 51.9868H128.537L125.668 44.2649L125.649 44.2189L125.645 44.2143ZM123.782 48.8594L125.129 45.1985L126.477 48.8594H123.782ZM116.874 49.4527C116.548 50.7174 115.862 51.3337 114.772 51.3337C113.305 51.3337 112.395 50.0827 112.395 48.0637C112.395 46.0447 113.319 44.9088 114.749 44.9088C115.812 44.9088 116.391 45.4238 116.75 46.6886L116.768 46.753L117.596 46.546L117.578 46.4816C117.178 44.9087 116.226 44.1085 114.758 44.1085C112.827 44.1085 111.525 45.709 111.525 48.0913C111.525 50.4737 112.795 52.1339 114.758 52.1339C116.262 52.1339 117.306 51.2509 117.702 49.6504L117.72 49.5814L116.888 49.3975L116.869 49.4619L116.874 49.4527ZM93.4923 47.8062L91.4135 44.2787L91.3951 44.2465H90.4477L93.0461 48.611V51.9822H93.9108V48.611L96.5185 44.2465H95.5802L93.4923 47.8062ZM103.771 47.3095C103.288 47.3095 102.934 47.6636 102.934 48.1511C102.934 48.6386 103.288 48.9881 103.771 48.9881C104.254 48.9881 104.613 48.634 104.613 48.1511C104.613 47.6682 104.259 47.3095 103.771 47.3095ZM84.3631 18.9928H83.2639C82.3716 15.8747 80.2928 13.2486 76.5768 13.2486C74.2312 13.2486 72.9343 14.5961 72.9343 16.422C72.9343 22.1478 85.6508 19.8115 85.6508 28.6739C85.6508 33.1075 82.1187 35.706 77.4414 35.706C74.5302 35.706 72.8929 34.7172 71.596 34.7172C70.9567 34.7172 70.3174 34.9241 69.8345 35.4944L68.3306 27.2758H69.4482C70.4278 31.5576 73.0677 34.478 77.5518 34.478C79.9525 34.478 81.8887 33.2178 81.8887 30.5596C81.8887 24.6911 69.37 26.4342 69.37 18.2662C69.37 14.2742 72.5066 12.0758 76.5492 12.0758C78.9131 12.0758 79.8651 12.7151 81.4104 12.7151C82.1049 12.7151 82.6706 12.4529 83.0937 11.9746L84.3631 18.9974V18.9928ZM150.507 34.0365V14.219H146.837V13.0738H151.689C153.727 13.0738 154.564 12.4759 155.18 11.97V17.0198H155.272C156.693 13.9016 159.448 12.0666 163.205 12.0666C167.699 12.0666 169.948 14.0396 169.948 18.6249V34.0365H173.572V35.1817H161.646V34.0365H165.27V18.4869C165.27 15.033 163.858 13.7177 161.527 13.7177C157.378 13.7177 155.18 17.8477 155.18 22.111V34.0365H158.804V35.1817H146.561V34.0365H150.507ZM102.865 31.7231L102.497 32.4544C101.545 34.2572 99.7194 35.6416 96.7116 35.6416C91.9424 35.6416 91.3721 32.8453 91.3721 29.9065V14.219H87.656V13.3176C92.0987 12.8898 94.5546 10.3879 95.1801 5.4991H96.1459V13.0738H101.789V14.219H96.1459V30.0905C96.1459 32.7947 96.868 33.8939 98.6156 33.8939C100.363 33.8939 101.265 32.5786 101.867 31.2494L102.861 31.7231H102.865ZM142.841 17.9121C141.475 17.9121 140.371 16.8819 140.371 15.4423C140.371 14.6651 140.73 13.9706 141.295 13.5199C141.162 13.4555 140.996 13.4279 140.753 13.4279C137.473 13.4279 134.921 19.071 134.921 24.268V34.0365H138.729V35.1817H126.302V34.0365H130.248V14.219H126.302V13.0738H131.453C133.431 13.0738 134.185 12.4897 134.926 11.878V18.073H134.985C135.947 15.4147 137.8 12.0666 141.53 12.0666C144.023 12.0666 145.37 13.4417 145.37 15.2584C145.37 16.6749 144.335 17.9121 142.85 17.9121H142.841ZM64.1638 28.8441C62.8715 31.8887 60.7099 34.3124 56.7547 34.3124C50.8402 34.3124 49.9664 29.8007 49.9664 22.8929V22.525H65.194C65.194 16.3806 61.7907 12.1586 55.4255 12.1586C48.4855 12.1586 44.7372 17.5073 44.7372 23.9461C44.7372 30.3848 48.2509 35.7336 55.3795 35.7336C59.7901 35.7336 63.3682 34.0687 65.24 29.1936L64.1638 28.8441ZM50.0078 20.069C50.2562 16.6519 51.5025 13.3406 55.1036 13.3406C58.9347 13.3406 59.7763 16.3346 59.8637 19.5033C59.8729 19.7977 59.8729 20.8233 59.8729 21.1038H49.9664C49.9664 20.7957 49.9848 20.3864 50.0078 20.069ZM123.46 28.8441C122.168 31.8887 120.006 34.3124 116.051 34.3124C110.136 34.3124 109.263 29.8007 109.263 22.8929V22.525H124.49C124.49 16.3806 121.087 12.1586 114.722 12.1586C107.782 12.1586 104.033 17.5073 104.033 23.9461C104.033 30.3848 107.547 35.7336 114.676 35.7336C119.086 35.7336 122.664 34.0687 124.536 29.1936L123.46 28.8441ZM109.304 20.069C109.552 16.6519 110.799 13.3406 114.4 13.3406C118.231 13.3406 119.072 16.3346 119.16 19.5033C119.169 19.7977 119.169 20.8233 119.169 21.1038H109.263C109.263 20.7957 109.281 20.3864 109.304 20.069ZM24.8645 11.8596C22.8547 17.6683 16.5724 35.6646 16.5724 35.6646H15.6342L5.36898 7.73886L3.68571 3.28693H0.498535V2.16016H13.6657V3.28693H9.54496L10.8097 7.0352L17.9797 26.8067H18.0717L24.0229 9.61069L21.6774 3.28693H17.6946V2.16476H32.0345V3.29153H27.3986L28.6634 6.94781L35.9254 26.8159H36.0174L42.4837 7.0444L43.5599 3.29613H39.4391V2.16935H48.7614V3.29613H45.4363L43.983 7.41692L34.7066 35.6738H33.7224L24.8645 11.8688V11.8596Z" fill="white"/>
<path d="M223.502 22.3028V3.25794C218.571 1.51028 210.804 0.378906 202.056 0.378906C193.309 0.378906 185.844 1.50568 180.905 3.25794V22.3074C180.905 25.2002 180.859 30.5766 183.457 36.629C186.681 44.1439 192.835 49.7502 201.739 53.2915L202.199 53.4801L202.659 53.2961C211.572 49.7502 217.725 44.1439 220.949 36.6336C223.548 30.5812 223.502 25.0531 223.502 22.312V22.3028Z" fill="white"/>
<path d="M202.203 32.1909L215.15 42.7459C211.949 46.4757 207.621 49.4559 202.203 51.6359C196.786 49.4559 192.458 46.4803 189.257 42.7459L202.203 32.1909ZM221.791 16.2183V4.47677C216.87 2.94987 209.622 2.08984 202.056 2.08984C194.491 2.08984 187.56 2.95907 182.616 4.49057V16.2183L202.203 32.1863L221.795 16.2137L221.791 16.2183ZM202.755 26.0281H201.569L201.532 25.9454C201.532 25.9454 201.228 25.3843 199.945 25.3843H196.073V19.1249H196.358V25.0991H199.945C201.141 25.0991 201.601 25.5544 201.739 25.743H202.677C202.81 25.5498 203.247 25.0991 204.443 25.0991H208.04V19.1433H208.325V25.3843H204.443C203.16 25.3843 202.889 25.9408 202.889 25.9454L202.852 26.0281H202.76H202.755ZM202.042 24.9657V25.2693C201.5 24.2529 199.044 24.4185 196.947 24.63V18.826C199.573 18.6926 201.808 18.3247 202.042 19.4698V24.6806C201.375 23.885 199.37 23.9677 197.273 24.1701V24.3357C199.347 24.1379 201.536 24.0689 202.042 24.9703V24.9657ZM207.451 18.826V24.63C205.358 24.4185 202.893 24.2529 202.355 25.2693V24.9657C202.843 24.0505 205.046 24.1287 207.134 24.3311V24.1655C205.027 23.9631 203.017 23.8666 202.355 24.676V19.4652C202.59 18.3201 204.825 18.688 207.451 18.8214V18.826ZM219.059 16.2183H185.361L183.209 13.9555L187.509 15.3858C187.155 14.3142 186.175 13.9463 185.541 13.0311C185.164 12.4884 185.035 11.9503 185.081 11.3938C185.196 11.5916 185.403 11.8629 185.729 12.0883C186.037 12.3044 186.456 12.47 187.026 12.5942C188.038 12.8149 188.567 13.1323 189.013 13.5462L186.81 9.60937L190.6 12.0515C190.443 10.9247 189.666 10.3406 189.28 9.30123C189.05 8.68035 189.054 8.12386 189.234 7.59496C189.298 7.81572 189.427 8.13306 189.689 8.4274C189.937 8.71254 190.301 8.97929 190.821 9.23684C191.782 9.71974 192.209 10.1705 192.541 10.704L191.372 6.28882L194.422 9.58177C194.546 8.47339 193.943 7.70994 193.828 6.61075C193.759 5.95308 193.897 5.41039 194.205 4.94128C194.21 5.17124 194.261 5.51157 194.44 5.8611C194.61 6.19684 194.895 6.54637 195.332 6.92809C196.174 7.65935 196.464 8.22044 196.652 8.84132L196.62 4.21003L198.74 8.13766C199.154 7.13965 198.717 6.22903 198.878 5.14364C198.975 4.49057 199.26 3.98927 199.674 3.61214C199.623 3.8375 199.586 4.17783 199.674 4.56416C199.752 4.93209 199.945 5.3414 200.276 5.81971C200.925 6.75793 201.058 7.3788 201.081 8.04567H201.09L202.222 3.50637L203.307 7.85711C203.96 6.96029 203.79 5.94389 204.222 4.92289C204.48 4.31581 204.875 3.95248 205.372 3.69033C205.266 3.89269 205.147 4.21463 205.128 4.61015C205.115 4.98727 205.193 5.42879 205.395 5.97608C205.777 7.01548 205.754 7.64555 205.62 8.28023L207.819 4.21463L207.787 8.68495C208.637 8.01348 208.697 6.95109 209.364 6.07726C209.764 5.55296 210.247 5.30001 210.79 5.17124C210.638 5.3414 210.44 5.62195 210.33 5.99908C210.219 6.3624 210.192 6.80852 210.247 7.388C210.362 8.51938 210.178 9.12646 209.879 9.71974L213.057 6.29342L211.917 10.5982C212.873 10.1429 213.218 9.22764 214.074 8.55157C214.593 8.14225 215.118 7.93989 215.679 7.94909C215.49 8.07787 215.228 8.29862 215.026 8.63896C214.832 8.96089 214.69 9.38861 214.602 9.9635C214.432 11.0811 214.11 11.6238 213.673 12.1251L213.692 12.1389L217.619 9.60477L215.449 13.4864C216.506 13.3346 217.017 12.4884 218.01 12.0515C218.613 11.7847 219.188 11.7158 219.73 11.8583C219.514 11.9365 219.206 12.0883 218.926 12.3642C218.659 12.631 218.415 13.0081 218.185 13.5416C217.744 14.5764 217.298 15.0225 216.755 15.395L216.778 15.4226L221.216 13.9463L219.064 16.2091L219.059 16.2183ZM197.659 22.565H197.774C198.124 22.565 198.151 22.5282 198.151 22.2983V21.2911C198.151 21.0151 198.105 20.9967 197.876 20.9967H197.659V20.8771C197.899 20.8771 198.147 20.8909 198.372 20.8909C198.616 20.8909 198.86 20.8817 199.085 20.8771V20.9967H198.869C198.634 20.9967 198.593 21.0151 198.593 21.2911V22.2983C198.593 22.5328 198.621 22.565 198.97 22.565H199.085V22.6846C198.864 22.6846 198.639 22.6708 198.372 22.6708C198.17 22.6708 197.908 22.68 197.659 22.6846V22.565ZM200.152 21.452C199.881 21.2911 199.692 21.0519 199.692 20.7484C199.692 20.4862 199.881 20.0217 200.497 20.0217C200.985 20.0217 201.196 20.3299 201.196 20.6058C201.196 20.8817 201.095 21.0611 200.686 21.2497C201.081 21.452 201.26 21.6682 201.26 21.9809C201.26 22.4132 200.92 22.726 200.405 22.726C199.941 22.726 199.646 22.4086 199.646 22.0729C199.646 21.705 199.936 21.5256 200.157 21.452H200.152ZM200.842 22.1741C200.842 21.9441 200.736 21.8016 200.262 21.5118C200.055 21.6222 199.941 21.8384 199.941 22.0407C199.941 22.4132 200.203 22.588 200.41 22.588C200.704 22.588 200.837 22.3719 200.837 22.1741H200.842ZM200.594 21.1991C200.773 21.0565 200.897 20.9047 200.897 20.6518C200.897 20.3575 200.699 20.1643 200.469 20.1643C200.207 20.1643 200.069 20.3758 200.069 20.592C200.069 20.8266 200.23 20.9829 200.594 21.1945V21.1991ZM203.059 20.8771H204.687L204.719 20.9139L203.394 23.5216L203.197 23.4664L204.259 21.2911H203.169L203.077 21.5348H202.962L203.063 20.8817L203.059 20.8771ZM205.584 21.452C205.312 21.2911 205.124 21.0519 205.124 20.7484C205.124 20.4862 205.312 20.0217 205.929 20.0217C206.416 20.0217 206.628 20.3299 206.628 20.6058C206.628 20.8817 206.526 21.0611 206.117 21.2497C206.517 21.452 206.692 21.6682 206.692 21.9809C206.692 22.4132 206.352 22.726 205.837 22.726C205.372 22.726 205.078 22.4086 205.078 22.0729C205.078 21.705 205.367 21.5256 205.588 21.452H205.584ZM206.273 22.1741C206.273 21.9441 206.168 21.8016 205.694 21.5118C205.487 21.6222 205.372 21.8384 205.372 22.0407C205.372 22.4132 205.634 22.588 205.841 22.588C206.135 22.588 206.269 22.3719 206.269 22.1741H206.273ZM206.025 21.1991C206.204 21.0565 206.329 20.9047 206.329 20.6518C206.329 20.3575 206.131 20.1643 205.906 20.1643C205.643 20.1643 205.501 20.3758 205.501 20.592C205.501 20.8266 205.662 20.9829 206.025 21.1945V21.1991ZM208.527 32.0576C208.532 29.2705 210.776 27.0169 213.545 27.0215C216.309 27.0215 218.548 29.2889 218.544 32.0759C218.544 34.863 216.295 37.1166 213.531 37.112C210.762 37.1074 208.527 34.7894 208.532 32.0576H208.527ZM215.84 28.622C215.872 28.6588 215.89 28.7048 215.89 28.7554C215.89 28.8796 215.794 28.9854 215.669 28.9854C215.545 28.9854 215.444 28.8888 215.439 28.7646C215.439 28.6496 215.518 28.553 215.628 28.5392L215.37 28.1391L214.929 28.3277C214.975 28.3691 215.007 28.4243 215.007 28.4887C215.007 28.6128 214.911 28.7186 214.786 28.7186C214.662 28.7186 214.556 28.622 214.556 28.4979C214.556 28.4013 214.612 28.3185 214.699 28.2863C214.566 28.1437 214.285 27.9368 214.009 27.8448C214.221 28.2265 214.336 28.7002 214.326 29.0911C214.607 29.0727 215.384 29.3119 215.679 29.5326C215.918 29.1785 216.277 28.8428 216.677 28.7002C216.483 28.6358 216.111 28.576 215.835 28.6128L215.84 28.622ZM214.432 29.6292C214.4 29.6292 214.363 29.6246 214.331 29.6154C214.299 29.6108 214.285 29.5924 214.28 29.5832C214.271 29.574 214.244 29.5372 214.166 29.5326C214.032 29.5234 213.968 29.6246 213.959 29.6844C213.954 29.7304 213.963 29.7764 213.991 29.8132C214.018 29.8454 214.051 29.8592 214.087 29.8638C214.115 29.8638 214.143 29.8638 214.17 29.85H214.175C214.23 29.8178 214.257 29.7718 214.276 29.7212C214.285 29.7028 214.345 29.6752 214.418 29.6752C214.432 29.6752 214.441 29.666 214.446 29.6522C214.446 29.6384 214.441 29.6246 214.428 29.6246L214.432 29.6292ZM213.076 29.7028C213.048 29.7488 213.053 29.7994 213.062 29.8362C213.062 29.8362 213.08 29.8638 213.085 29.8684C213.066 29.942 213.071 30.0385 213.099 30.1765C213.117 30.2547 213.186 30.2823 213.319 30.2869C213.319 30.3191 213.324 30.3513 213.328 30.3835C213.328 30.3835 213.328 30.3927 213.328 30.3973C213.25 30.4203 213.177 30.4295 213.108 30.4295C212.896 30.4157 212.767 30.3007 212.795 30.0891C212.8 30.0523 212.809 30.0202 212.832 29.9834C212.841 29.965 212.832 29.9512 212.813 29.9466C212.74 29.919 212.524 30.0983 212.491 30.3421C212.459 30.5766 212.593 30.7054 212.786 30.7146C212.892 30.7192 213.034 30.7054 213.191 30.6456C213.448 30.5398 213.742 30.5077 213.922 30.6916C213.784 30.664 213.434 30.6916 213.333 30.71C213.181 30.7376 213.112 31.0503 213.278 31.0595C213.407 31.0687 213.88 31.0366 213.903 31.0458C213.857 31.2527 213.549 31.5103 213.255 31.57C213.076 31.4965 212.547 31.5149 212.307 31.5838C212.009 31.2435 211.788 30.6134 211.76 30.4019C211.751 30.3053 211.746 30.1949 211.797 30.1075C211.894 29.9374 212.082 29.9512 212.174 29.804C212.225 29.7258 212.202 29.6292 212.216 29.5418C212.22 29.5051 212.298 29.3717 212.202 29.3303C212.16 29.3855 212.091 29.4223 212.004 29.3947C211.949 29.3763 211.884 29.3533 211.82 29.3809C211.714 29.4269 211.696 29.5556 211.613 29.643C211.572 29.689 211.516 29.6706 211.526 29.597C211.544 29.4775 211.604 29.3671 211.585 29.2429C211.567 29.1187 211.475 29.0221 211.351 28.9532C211.296 28.9256 211.236 28.8704 211.176 28.8566C211.116 28.8428 211.07 28.8658 211.066 28.8888C211.093 28.9072 211.116 28.944 211.121 28.99C211.121 29.1003 211.001 29.1601 211.001 29.2659C211.001 29.4269 211.112 29.5694 211.121 29.6568C211.13 29.7212 211.075 29.7212 211.038 29.7028C210.955 29.6568 210.827 29.5878 210.702 29.5832C210.606 29.5832 210.537 29.6614 210.454 29.6936C210.417 29.7074 210.261 29.7074 210.293 29.781C210.38 29.7994 210.445 29.8546 210.472 29.9328C210.495 29.9926 210.509 30.0431 210.564 30.0845C210.661 30.1535 210.859 30.1351 210.96 30.1535C211.024 30.1673 211.098 30.2041 211.116 30.3329C211.13 30.4203 211.098 30.5215 211.057 30.595C210.978 30.7284 210.942 30.8664 210.978 30.9952C211.015 30.9446 211.052 30.9262 211.093 30.9262C211.176 30.9262 211.204 31.0228 211.139 31.1561C211.084 31.2757 211.047 31.4091 211.103 31.5654C211.13 31.5149 211.172 31.4827 211.217 31.4827C211.291 31.4827 211.337 31.5654 211.282 31.7126C211.231 31.8506 211.217 31.9794 211.273 32.1081C211.296 32.053 211.337 32.0116 211.392 32.0116C211.475 32.0116 211.507 32.0943 211.539 32.1633C211.631 32.3933 211.783 32.5129 212.16 32.5129C212.027 32.7612 210.946 32.6002 210.505 32.5497C210.408 32.5405 210.353 32.5129 210.325 32.4347C210.256 32.2599 210.417 32.1173 210.325 31.938C210.279 31.846 210.206 31.823 210.128 31.7724C210.091 31.7494 209.994 31.6206 209.93 31.6758C209.957 31.7448 209.953 31.8 209.875 31.869C209.824 31.915 209.778 31.9518 209.769 32.0254C209.755 32.1449 209.856 32.2645 209.888 32.3703C209.916 32.4485 209.87 32.4807 209.801 32.4301C209.695 32.3519 209.543 32.1633 209.382 32.1633C209.272 32.1633 209.244 32.2277 209.157 32.2691C209.12 32.2875 208.95 32.3059 208.964 32.3887C209.038 32.4025 209.102 32.4439 209.12 32.5451C209.134 32.6094 209.148 32.6784 209.208 32.7244C209.355 32.8394 209.585 32.7888 209.718 32.8164C209.773 32.8256 209.783 32.8716 209.732 32.9038C209.617 32.9728 209.456 33.0188 209.396 33.1337C209.35 33.2257 209.378 33.3315 209.378 33.4281C209.378 33.4695 209.323 33.5982 209.415 33.6258C209.461 33.5661 209.52 33.5201 209.626 33.5339C209.695 33.5431 209.75 33.5707 209.815 33.5385C209.925 33.4833 209.939 33.3775 209.999 33.2809C210.031 33.2303 210.077 33.1797 210.16 33.1797C210.21 33.1797 210.256 33.1889 210.298 33.2257C210.385 33.3039 210.376 33.4879 210.643 33.5247C210.629 33.4971 210.62 33.4603 210.62 33.4327C210.62 33.3775 210.652 33.3361 210.707 33.3361C210.767 33.3361 210.813 33.3637 210.868 33.4603C210.937 33.5799 211.015 33.6166 211.135 33.6304C211.116 33.6028 211.107 33.5615 211.107 33.5293C211.107 33.4741 211.139 33.4373 211.19 33.4373C211.222 33.4373 211.277 33.4465 211.328 33.5339C211.406 33.6626 211.461 33.727 211.595 33.7408C211.553 33.6626 211.585 33.5615 211.687 33.5615C211.788 33.5615 212.045 33.6488 212.234 33.727C212.225 34.2145 212.547 34.7434 213.016 35.0608C212.997 34.9688 213.048 34.9182 213.117 34.9182C213.31 34.9182 213.407 35.3689 213.834 35.5759C213.811 35.4885 213.857 35.4333 213.922 35.4333C213.972 35.4333 214.041 35.4655 214.078 35.4839C214.464 35.6908 214.869 35.953 215.067 36.1278C215.467 36.0082 216.116 35.6173 216.543 35.1757C216.281 35.093 215.554 34.5503 215.306 34.2927C214.851 33.8236 214.727 33.3361 214.727 32.9728C214.727 32.8532 214.745 32.7382 214.773 32.6462C214.906 32.7244 215.095 32.7152 215.21 32.6048C215.003 32.4439 215.035 32.1219 215.104 32.007C215.219 32.1035 215.43 32.0713 215.536 31.9794C215.375 31.8828 215.292 31.6252 215.375 31.4045C215.462 31.4965 215.669 31.5011 215.794 31.3999C215.628 31.2573 215.541 31.0366 215.587 30.779C215.665 30.8848 215.807 30.8986 215.918 30.8572C215.853 30.7146 215.844 30.4847 215.826 30.3283C215.803 30.1167 215.738 29.873 215.669 29.7488C215.439 29.551 214.745 29.2705 214.313 29.2705C214.253 29.2705 214.198 29.2797 214.147 29.2889C214.028 29.3165 213.94 29.3579 213.936 29.3809C213.871 29.4821 213.71 29.5051 213.568 29.5418C213.466 29.5694 213.191 29.6476 213.085 29.7074L213.076 29.7028ZM213.742 33.0923H213.706C213.678 33.3867 213.512 33.8374 213.411 33.9984L213.6 33.8512L213.724 33.9984L213.848 33.8512L214.028 33.9984C213.931 33.8282 213.775 33.3821 213.747 33.0923H213.742ZM217.086 34.5227C217.127 34.4629 217.178 34.3801 217.178 34.3801C216.994 34.0996 216.851 33.7868 216.879 33.4327C216.907 33.0464 217.123 32.9314 217.293 32.936C217.445 32.9406 217.55 33.0602 217.56 33.2303C217.688 33.1199 217.744 32.9958 217.753 32.8624C217.762 32.7612 217.707 32.6048 217.541 32.5635C217.849 32.2783 217.817 31.708 217.504 31.4919C217.55 31.9012 217.242 32.1817 216.966 32.4485C216.598 32.8072 216.548 33.2073 216.612 33.6304C216.391 33.2073 216.29 32.8072 216.318 32.4163C216.35 31.9748 216.571 31.5195 216.893 31.5425C216.999 31.5517 217.104 31.6022 217.146 31.6942C217.302 31.4367 217.192 31.1515 216.943 31.1285C217.196 30.5215 216.787 29.9098 216.447 29.7764C216.534 29.9604 216.575 30.1443 216.562 30.3559C216.52 30.94 216.01 31.4045 215.959 32.2737C215.904 33.2119 216.428 34.0306 216.985 34.656C216.985 34.656 217.031 34.5963 217.081 34.5227H217.086ZM214.878 34.3801H214.842C214.814 34.6744 214.648 35.1251 214.547 35.2861L214.736 35.1389L214.86 35.2861L214.984 35.1389L215.164 35.2861C215.067 35.116 214.911 34.6698 214.883 34.3801H214.878ZM214.009 30.572C214.037 30.5169 214.055 30.4341 214.055 30.3881C214.055 30.3559 214.055 30.3099 214.018 30.2731C213.982 30.2363 213.894 30.2179 213.798 30.2179C213.701 30.2179 213.604 30.2317 213.549 30.2685C213.54 30.2961 213.531 30.3283 213.517 30.3651C213.692 30.3651 213.876 30.4111 214.009 30.572ZM190.839 37.1166C193.603 37.1166 195.852 34.8676 195.857 32.0805C195.861 29.2935 193.626 27.0307 190.857 27.0261C188.093 27.0261 185.844 29.2751 185.84 32.0622C185.835 34.8492 188.075 37.112 190.839 37.1166ZM194.086 29.9926C194.095 30.1443 194.021 30.4019 193.962 30.4663C193.907 30.4847 193.764 30.4985 193.663 30.5031C193.594 30.5031 193.58 30.5123 193.539 30.5812C193.414 30.7928 193.304 30.9906 193.171 31.2435C193.143 31.5379 193.143 31.8276 193.12 32.1771C193.111 32.3013 193.129 32.4669 193.042 32.6048C192.932 32.7428 192.817 32.844 192.715 32.913C192.697 32.9268 192.669 32.9636 192.752 32.936C192.803 32.9222 193.033 32.8072 193.083 32.7888C193.249 32.7382 193.437 32.5359 193.695 32.7888C193.819 32.9084 194.012 33.0234 194.238 33.1797C194.32 33.2349 194.366 33.2257 194.477 33.3269C194.569 33.4051 194.61 33.5845 194.665 33.6764C194.803 33.9156 194.822 34.0628 194.817 34.1179C194.73 34.1685 194.403 34.1685 194.27 34.1317C194.224 34.049 194.228 33.9248 194.205 33.865C194.159 33.75 194.118 33.6902 194.054 33.6488C193.952 33.5799 193.879 33.4971 193.773 33.4373C193.52 33.2947 193.493 33.2625 193.304 33.3545C193.134 33.4373 192.867 33.6764 192.591 33.8236C192.375 33.9294 191.773 33.8236 191.607 33.6718C191.662 33.8374 191.998 34.0168 192.251 34.1363C192.214 34.2237 192.127 34.6836 191.943 34.955C191.933 34.8906 191.892 34.84 191.832 34.84C191.667 34.84 191.694 35.2033 191.533 35.3873C191.524 35.3321 191.483 35.2723 191.414 35.2723C191.257 35.2723 191.276 35.6127 191.096 35.7874C191.078 35.7138 191.037 35.6586 190.963 35.6586C190.889 35.6586 190.825 35.7276 190.765 35.792C190.549 36.022 190.453 36.1553 190.246 36.3669C189.56 36.3255 188.544 35.8518 188.185 35.4149C188.834 34.7204 189.418 34.0214 189.703 33.819C189.841 33.4097 190.25 32.5405 190.402 32.1403C190.384 32.0989 190.361 32.0621 190.342 32.0254C190.241 32.0851 190.121 32.0943 190.066 32.0668C190.108 31.9564 190.112 31.777 190.066 31.639C189.993 31.6804 189.891 31.7034 189.813 31.6758C189.859 31.5425 189.869 31.3861 189.823 31.2573C189.731 31.2987 189.643 31.3125 189.574 31.2895C189.611 31.1377 189.648 30.9952 189.602 30.8066C189.602 30.7928 189.593 30.779 189.588 30.7652C189.464 30.8296 189.027 30.9078 188.926 30.8664C188.861 30.8158 189.238 30.4387 189.551 30.1213C189.257 30.2547 188.866 30.3927 188.277 30.5123C187.941 30.5812 187.233 30.7054 186.732 30.6134C186.649 30.5996 186.668 30.4893 186.75 30.4893C187.012 30.4893 187.371 30.4755 187.629 30.4111C187.698 30.3927 187.808 30.3329 187.61 30.2961C187.394 30.2593 187.003 30.1949 186.81 30.1305C186.741 30.1075 186.778 30.0248 186.838 30.0294C187.077 30.0477 187.362 30.0983 187.564 30.1075C187.684 30.1075 187.735 30.0937 187.647 30.0202C187.592 29.9742 187.426 29.8684 187.252 29.7626C187.215 29.7396 187.219 29.689 187.265 29.6798C187.399 29.6568 187.932 29.9926 188.291 30.0891C188.374 30.1121 188.438 30.1259 188.507 30.1121C188.581 30.0983 188.59 30.0569 188.585 30.0248C188.572 29.942 188.217 29.7718 188.047 29.6568C187.978 29.6108 188.047 29.5556 188.125 29.5786C188.314 29.6338 188.751 29.8638 188.949 29.8868C189.105 29.9052 189.16 29.8638 189.156 29.8178C189.137 29.712 188.535 29.4269 188.392 29.3211C188.355 29.2935 188.406 29.2475 188.447 29.2521C188.756 29.2889 189.353 29.7074 189.62 29.6568C189.648 29.6522 189.685 29.6292 189.68 29.5924C189.657 29.4729 189.156 29.2153 189.036 29.1279C188.972 29.0865 189.045 29.0451 189.133 29.0635C189.312 29.1049 189.602 29.2475 189.772 29.3349C189.85 29.3763 189.919 29.3901 190.002 29.3763C190.112 29.3579 190.209 29.2429 190.163 29.0038C190.117 28.76 189.891 28.668 189.735 28.622C189.56 28.576 189.689 28.4933 189.841 28.5208C190.131 28.576 190.342 28.7094 190.388 28.967C190.397 29.0084 190.397 29.0681 190.397 29.1187C190.402 29.2567 190.503 29.2107 190.586 29.0911C190.747 28.8704 190.779 28.645 190.752 28.4979C190.706 28.2357 190.338 28.1345 190.338 28.0701C190.338 28.0517 190.361 28.0333 190.379 28.0287C190.522 28.0057 190.908 28.1713 190.963 28.4841C190.991 28.6496 190.963 28.737 190.935 28.898C190.931 28.9302 190.954 28.9624 191.004 28.9072C191.188 28.7232 191.345 28.3875 191.29 28.0839C191.234 27.762 190.903 27.647 190.894 27.5964C190.894 27.5826 190.917 27.5596 190.945 27.5596C191.078 27.5366 191.446 27.7528 191.515 28.1069C191.579 28.4243 191.428 29.0773 190.448 29.6016C190.857 29.5097 190.972 29.5234 191.018 29.574C191.492 29.4453 191.791 29.3487 191.915 29.3763C192.048 29.5786 191.768 29.6614 191.763 29.8132C191.768 29.9604 192.094 29.7166 192.039 29.9466C191.938 30.1305 191.814 30.1397 191.667 30.1995C191.593 30.2501 191.299 30.4571 191.142 30.5858C191.616 30.917 192.099 31.4183 192.131 31.4413C192.159 31.5149 192.278 31.7218 192.407 32.0346C192.407 32.0392 192.416 32.0484 192.416 32.053C192.481 31.8506 192.591 31.5149 192.637 31.3447C192.679 31.1975 192.665 31.1469 192.711 31.0595C192.752 30.986 192.881 30.8618 193 30.687C193.106 30.5307 193.276 30.2869 193.336 30.1949C193.437 30.0431 193.534 30.0753 193.718 30.0248C193.787 30.0064 193.994 29.9926 194.077 29.9972L194.086 29.9926ZM190.365 30.0156C190.388 29.9926 190.425 29.9558 190.462 29.9374C190.54 29.896 190.646 29.873 190.715 29.8592C190.747 29.9098 190.733 29.9972 190.678 30.0615C190.618 30.1305 190.549 30.0983 190.485 30.0707C190.439 30.0523 190.407 30.0523 190.388 30.0523C190.365 30.0523 190.351 30.0294 190.365 30.0156ZM207.304 43.008C207.35 42.9712 207.455 42.8332 207.414 42.8056C207.34 42.7688 207.193 42.9206 206.973 42.9206C206.752 42.9206 206.513 42.7826 206.434 42.4929C206.342 42.1618 206.499 41.918 206.747 41.7019C206.83 41.6329 207.023 41.5179 207.083 41.4167C207.069 41.2373 207.262 40.9384 207.267 40.7774C207.267 40.5935 207.451 40.5153 207.616 40.2715C207.704 40.1382 207.768 40.0048 207.699 39.9312C207.497 40.0922 206.931 40.5383 206.591 40.4095C206.43 40.3497 206.421 40.3451 206.283 40.4463C206.177 40.5245 206.025 40.5659 205.841 40.5337C205.542 40.4877 205.34 40.2899 205.344 40.1474C205.156 40.129 204.958 40.4831 204.862 40.6211C204.728 40.805 204.576 40.9384 204.397 41.0764C204.25 41.1914 204.02 41.4397 203.841 41.3109C203.716 41.2236 203.703 40.9246 203.712 40.759C203.726 40.4785 203.753 40.2715 203.79 40.0968C203.822 39.9358 203.868 39.7472 203.914 39.5955C203.969 39.4161 204.075 39.2137 204.139 39.0344C204.167 38.9562 204.383 38.5837 204.383 38.4411C204.383 38.4043 204.36 38.3813 204.319 38.3813C204.227 38.3813 204.094 38.4733 203.974 38.5469C203.873 38.6067 203.776 38.6481 203.638 38.6481C203.482 38.6481 203.358 38.5837 203.252 38.3997C203.082 38.0916 203.082 37.4339 202.999 37.2315C202.829 37.3189 202.691 37.2729 202.585 37.1212C202.456 36.9418 202.383 36.7302 202.304 36.5187C202.272 36.4359 202.212 36.1967 202.176 36.0634C202.079 36.2657 202.065 36.4773 202.001 36.6566C201.969 36.7624 201.941 36.905 201.914 37.02C201.881 37.1579 201.762 37.3925 201.628 37.3925C201.55 37.3925 201.504 37.3097 201.486 37.2683C201.44 37.2683 201.398 37.3189 201.371 37.4063C201.316 37.5581 201.316 37.6822 201.279 37.8294C201.21 38.1192 201.168 38.5055 200.814 38.5561C200.663 38.5745 200.474 38.4641 200.35 38.4043C200.046 38.2571 200.17 38.6757 200.253 38.832C200.341 38.993 200.465 39.1861 200.497 39.4161C200.548 39.7932 200.617 39.9726 200.699 40.3313C200.75 40.5521 200.837 40.8602 200.837 41.0902C200.837 41.3707 200.635 41.5363 200.299 41.2465C200.203 41.1638 199.991 40.897 199.807 40.8464C199.559 40.7728 199.301 40.5061 199.205 40.3727C199.149 40.3773 199.03 40.4647 198.979 40.5061C198.699 40.7636 198.395 40.8326 197.908 40.7498C197.659 40.7039 197.577 40.6441 197.351 40.5337C197.172 40.4463 196.997 40.3589 196.878 40.1842C196.85 40.1382 196.822 40.0416 196.753 40.06C196.675 40.0738 196.671 40.2255 196.671 40.2807C196.671 40.4647 196.735 40.6487 196.822 40.805C196.919 40.9798 197.084 41.0488 197.213 41.1914C197.324 41.3201 197.273 41.4857 197.08 41.4121C197.084 41.5547 197.241 41.5777 197.337 41.6467C197.443 41.7295 197.494 41.8352 197.549 41.9456C197.618 42.0836 197.825 42.2078 197.825 42.3917C197.825 42.5297 197.784 42.6171 197.669 42.6815C197.521 42.7596 197.37 42.7413 197.209 42.6585C197.126 42.9206 197.425 43.1046 197.627 43.2104C197.733 43.2655 197.857 43.3023 197.958 43.3713C198.064 43.4449 198.197 43.5553 198.179 43.6335C198.331 43.6933 198.501 43.6335 198.749 43.6657C198.901 43.6887 199.122 43.799 199.237 43.8956C199.361 43.9968 199.435 44.1302 199.435 44.2957C199.435 44.8798 198.437 45.05 198.437 45.05C198.851 45.2064 199.384 45.4869 199.835 45.3719C199.927 45.3489 200.065 45.2708 200.166 45.3213C200.253 45.3673 200.322 45.4961 200.253 45.6249C200.331 45.7031 200.483 45.7307 200.626 45.7307C200.736 45.7307 200.865 45.7169 200.966 45.6709C201.09 45.6157 201.127 45.5283 201.233 45.4593C201.334 45.3995 201.44 45.4179 201.546 45.3719C201.716 45.2983 201.799 45.1052 202.006 45.0914L201.927 48.5223H202.58C202.571 48.1774 202.562 47.8279 202.548 47.4783C202.53 46.885 202.516 46.2918 202.493 45.6985C202.484 45.5053 202.475 45.3075 202.493 45.1144C202.677 45.1742 202.76 45.3995 202.921 45.4961C203.105 45.6111 203.565 45.8778 203.767 45.6847C203.735 45.6065 203.615 45.3903 203.767 45.4133C203.813 45.4225 203.91 45.4915 203.956 45.5145C204.061 45.5743 204.167 45.5881 204.291 45.5743C204.452 45.5559 204.609 45.5467 204.802 45.5835C204.926 45.6065 205.004 45.6157 205.156 45.5835C205.266 45.5605 205.358 45.5007 205.459 45.4593C205.639 45.3811 205.841 45.4225 205.984 45.2662C205.837 45.2662 205.556 45.1604 205.496 45.119C205.321 45.004 205.188 44.8522 205.11 44.6637C205.032 44.4751 204.972 44.236 205.234 44.1854C205.381 44.1578 205.349 44.1854 205.441 44.0796C205.533 43.983 205.689 43.8312 205.827 43.7852C205.988 43.7301 206.471 43.7531 206.526 43.5507C206.503 43.5277 206.467 43.4771 206.476 43.4449C206.485 43.3943 206.517 43.3759 206.582 43.3483C206.674 43.3023 206.789 43.2609 206.885 43.2334C207.023 43.192 207.221 43.1138 207.34 43.008H207.304Z" fill="#4F2683"/>
<script xmlns=""/></svg>