<svg width="67" height="77" viewBox="0 0 67 77" fill="none" xmlns="http://www.w3.org/2000/svg">
<path d="M33.3263 14.0742C22.0533 14.0742 12.8773 23.2461 12.8773 34.5232C12.8773 39.5388 14.7132 44.363 18.0414 48.1092C18.2211 48.3319 21.4164 52.3436 21.4164 58.5822V62.4338C21.4164 63.676 22.1508 64.7385 23.2016 65.2463V67.8479C23.2016 69.5706 24.6039 70.9729 26.3266 70.9729H26.4477V71.6995C26.4477 74.2854 28.5493 76.387 31.1352 76.387H35.5141C38.1 76.387 40.2016 74.2854 40.2016 71.6995V70.9729H40.3227C42.0454 70.9729 43.4477 69.5706 43.4477 67.8479V65.2463C44.4985 64.7424 45.2329 63.676 45.2329 62.4338V58.5822C45.2329 52.1955 48.5845 48.1372 48.5923 48.1292C51.9361 44.3831 53.772 39.5511 53.772 34.5242C53.772 23.2512 44.6001 14.0752 33.323 14.0752L33.3263 14.0742ZM42.1075 62.4332H24.5455V60.1441H42.1075V62.4332ZM37.0763 71.6988C37.0763 72.5582 36.3771 73.2613 35.5138 73.2613H31.1349C30.2755 73.2613 29.5724 72.5582 29.5724 71.6988V70.9723H37.0763V71.6988ZM26.3263 67.8472V65.5581H40.3223V67.8472H26.3263ZM46.2363 46.0742C46.0801 46.2578 42.6465 50.3515 42.166 57.0192H24.49C24.0056 50.3512 20.572 46.2572 20.4158 46.0742C20.408 46.0664 20.4002 46.0586 20.3924 46.0508C17.5604 42.875 16.0018 38.7852 16.0018 34.5278C16.0018 24.9731 23.7752 17.2038 33.3258 17.2038C42.8764 17.2038 50.6498 24.9772 50.6498 34.5278C50.6498 38.7856 49.0912 42.8794 46.2396 46.0788L46.2363 46.0742Z" fill="#4F2683"/>
<path d="M39.5253 21.4641C38.744 21.1008 37.8105 21.4407 37.4511 22.2219C37.0878 23.0032 37.4276 23.9328 38.2089 24.2961C41.3964 25.7766 43.7206 28.5734 44.58 31.9719C44.7597 32.679 45.3964 33.1516 46.0956 33.1516C46.2206 33.1516 46.3534 33.136 46.4823 33.1048C47.3182 32.8938 47.8261 32.0423 47.6151 31.2064C46.5213 26.8939 43.576 23.3392 39.5292 21.4642L39.5253 21.4641Z" fill="#4F2683"/>
<path d="M65.5723 43.7931L57.5723 41.1915C56.7559 40.9259 55.8692 41.3751 55.6035 42.1954C55.3379 43.0157 55.7871 43.8985 56.6074 44.1642L64.6074 46.7658C64.7676 46.8166 64.9277 46.8439 65.0918 46.8439C65.7519 46.8439 66.3613 46.4221 66.5762 45.7658C66.8418 44.9455 66.3926 44.0627 65.5723 43.797L65.5723 43.7931Z" fill="#4F2683"/>
<path d="M57.0923 28.8001C57.2525 28.8001 57.4126 28.7767 57.5767 28.722L65.5767 26.1204C66.397 25.8547 66.8462 24.972 66.5806 24.1516C66.315 23.3313 65.4322 22.8821 64.6118 23.1477L56.6118 25.7493C55.7915 26.0149 55.3423 26.8977 55.6079 27.7181C55.8227 28.3782 56.436 28.7962 57.0923 28.7962L57.0923 28.8001Z" fill="#4F2683"/>
<path d="M51.6933 7.01921L46.748 13.8239C46.2402 14.5231 46.3964 15.4997 47.0917 16.0075C47.3691 16.2106 47.6894 16.3044 48.0097 16.3044C48.4941 16.3044 48.9706 16.0817 49.2753 15.6599L54.2206 8.85516C54.7284 8.15594 54.5722 7.17936 53.8768 6.67156C53.1776 6.16375 52.2011 6.32 51.6972 7.01531L51.6933 7.01921Z" fill="#4F2683"/>
<path d="M33.3263 11.5391C34.1896 11.5391 34.8888 10.8399 34.8888 9.9766V1.5625C34.8888 0.69922 34.1896 0 33.3263 0C32.463 0 31.7638 0.69922 31.7638 1.5625V9.9766C31.7638 10.8399 32.463 11.5391 33.3263 11.5391Z" fill="#4F2683"/>
<path d="M18.6423 16.3082C18.9626 16.3082 19.2829 16.2105 19.5602 16.0113C20.2595 15.5035 20.4118 14.5269 19.904 13.8277L14.9587 7.0191C14.4509 6.32379 13.4743 6.16754 12.7751 6.67535C12.0759 7.18316 11.9235 8.15975 12.4313 8.85895L17.3766 15.6675C17.6813 16.0894 18.1579 16.3121 18.6422 16.3121L18.6423 16.3082Z" fill="#4F2683"/>
<path d="M10.0453 25.7532L2.04531 23.1516C1.225 22.886 0.342214 23.3352 0.0765142 24.1555C-0.189106 24.9758 0.260105 25.8586 1.08041 26.1243L9.08041 28.7259C9.24057 28.7767 9.40463 28.804 9.56479 28.804C10.225 28.804 10.8382 28.3821 11.0492 27.7259C11.3148 26.9056 10.8656 26.0228 10.0453 25.7571L10.0453 25.7532Z" fill="#4F2683"/>
<path d="M9.08029 41.1952L1.08029 43.7968C0.259975 44.0624 -0.189215 44.9452 0.0763846 45.7656C0.291225 46.4257 0.904506 46.8437 1.56079 46.8437C1.72095 46.8437 1.88501 46.8202 2.04517 46.7656L10.0452 44.164C10.8655 43.8983 11.3147 43.0156 11.0491 42.1952C10.7834 41.3748 9.90457 40.9257 9.08027 41.1913L9.08029 41.1952Z" fill="#4F2683"/>
</svg>
