<svg width="51" height="51" viewBox="0 0 51 51" fill="none" xmlns="http://www.w3.org/2000/svg"><script xmlns=""/>
<rect x="0.566406" y="0.964844" width="50" height="50" rx="25" fill="#EEEEEE"/>
<path d="M25.57 21.1803C22.9214 21.1803 20.785 23.3166 20.785 25.9652C20.785 28.6138 22.9214 30.7501 25.57 30.7501C28.2185 30.7501 30.3549 28.6138 30.3549 25.9652C30.3549 23.3166 28.2185 21.1803 25.57 21.1803ZM25.57 29.076C23.8584 29.076 22.4591 27.681 22.4591 25.9652C22.4591 24.2495 23.8542 22.8544 25.57 22.8544C27.2857 22.8544 28.6808 24.2495 28.6808 25.9652C28.6808 27.681 27.2815 29.076 25.57 29.076ZM31.6667 20.9846C31.6667 21.6051 31.167 22.1006 30.5506 22.1006C29.9301 22.1006 29.4346 21.6009 29.4346 20.9846C29.4346 20.3682 29.9343 19.8685 30.5506 19.8685C31.167 19.8685 31.6667 20.3682 31.6667 20.9846ZM34.8358 22.1173C34.765 20.6223 34.4235 19.298 33.3283 18.2069C32.2372 17.1158 30.9129 16.7743 29.4179 16.6994C27.8771 16.6119 23.2587 16.6119 21.7179 16.6994C20.227 16.7702 18.9027 17.1117 17.8075 18.2027C16.7122 19.2938 16.3749 20.6181 16.3 22.1131C16.2125 23.654 16.2125 28.2723 16.3 29.8131C16.3708 31.3082 16.7122 32.6325 17.8075 33.7235C18.9027 34.8146 20.2229 35.1561 21.7179 35.2311C23.2587 35.3185 27.8771 35.3185 29.4179 35.2311C30.9129 35.1603 32.2372 34.8188 33.3283 33.7235C34.4194 32.6325 34.7608 31.3082 34.8358 29.8131C34.9233 28.2723 34.9233 23.6581 34.8358 22.1173ZM32.8452 31.4664C32.5204 32.2826 31.8916 32.9115 31.0712 33.2405C29.8427 33.7277 26.9276 33.6153 25.57 33.6153C24.2124 33.6153 21.2931 33.7235 20.0688 33.2405C19.2525 32.9156 18.6237 32.2868 18.2947 31.4664C17.8075 30.2379 17.9199 27.3228 17.9199 25.9652C17.9199 24.6076 17.8116 21.6884 18.2947 20.464C18.6195 19.6478 19.2484 19.019 20.0688 18.69C21.2973 18.2027 24.2124 18.3152 25.57 18.3152C26.9276 18.3152 29.8468 18.2069 31.0712 18.69C31.8874 19.0148 32.5162 19.6436 32.8452 20.464C33.3325 21.6925 33.22 24.6076 33.22 25.9652C33.22 27.3228 33.3325 30.2421 32.8452 31.4664Z" fill="#4F2683"/>
<script xmlns=""/></svg>