<svg width="74" height="95" viewBox="0 0 74 95" fill="none" xmlns="http://www.w3.org/2000/svg">
<path fill-rule="evenodd" clip-rule="evenodd" d="M8.8751 0H64.2541C66.6955 0 68.9182 1 70.5158 2.6094C72.1174 4.2188 73.1252 6.4414 73.1252 8.8711L73.1291 85.8631C73.1291 88.3045 72.1291 90.5272 70.5197 92.1248C68.9103 93.7342 66.6877 94.7342 64.258 94.7342H8.87501C6.43361 94.7342 4.21091 93.7342 2.61331 92.1248C1.00391 90.5154 0.00390625 88.2928 0.00390625 85.8631L0 8.8711C0 6.4297 1 4.207 2.6094 2.6094C4.2188 1 6.4414 0 8.8711 0H8.8751ZM13.7892 75.391H46.7462C47.3556 75.391 47.8517 74.8949 47.8517 74.2855C47.8517 73.6761 47.3556 73.18 46.7462 73.18L13.7932 73.1761C13.1838 73.1761 12.6877 73.6722 12.6877 74.2816C12.6877 74.891 13.1838 75.3871 13.7932 75.3871L13.7892 75.391ZM13.7892 57.59H52.6762C53.2856 57.59 53.7817 57.0939 53.7817 56.4845C53.7817 55.8751 53.2856 55.379 52.6762 55.379H13.7932C13.1838 55.379 12.6877 55.8751 12.6877 56.4845C12.6877 57.0939 13.1838 57.59 13.7932 57.59H13.7892ZM13.7892 39.789H59.5982C60.2076 39.789 60.7037 39.2929 60.7037 38.6835C60.7037 38.0741 60.2076 37.578 59.5982 37.578H13.7932C13.1838 37.578 12.6877 38.0741 12.6877 38.6835C12.6877 39.2929 13.1838 39.789 13.7932 39.789H13.7892ZM2.2232 20.937H70.9182V8.871C70.9182 7.039 70.1721 5.3749 68.9612 4.1757C67.7503 2.9648 66.0862 2.2187 64.2659 2.2187H8.8749C7.0429 2.2187 5.3788 2.96479 4.1796 4.1757C2.9687 5.3866 2.2226 7.0507 2.2226 8.871L2.2232 20.937ZM70.9072 23.1597L2.2232 23.1558V85.8628C2.2232 87.6948 2.96929 89.3589 4.1802 90.5581C5.3911 91.7573 7.0552 92.5151 8.8755 92.5151H64.2545C66.0865 92.5151 67.7506 91.769 68.9498 90.5581C70.149 89.3472 70.9068 87.6831 70.9068 85.8628V23.1558L70.9072 23.1597Z" fill="#4F2683"/>
</svg>
