<svg width="228" height="55" viewBox="0 0 228 55" fill="none" xmlns="http://www.w3.org/2000/svg">
<path d="M48.9056 44.8525V52.6354H53.763V51.9494H49.6468V48.8662H52.5487V48.1801H49.6468V45.5621H53.5422V44.8525H48.9056Z" fill="#4F2683"/>
<mask id="mask0_11_665" style="mask-type:luminance" maskUnits="userSpaceOnUse" x="0" y="0" width="228" height="55">
<path d="M228 0H0V54.3229H228V0Z" fill="white"/>
</mask>
<g mask="url(#mask0_11_665)">
<path d="M70.9218 48.3378C69.2737 47.8095 68.769 47.5256 68.769 46.6582C68.769 45.9407 69.392 45.3808 70.4486 45.3808C71.4107 45.3808 72.0967 45.7829 72.5067 46.7844L73.1297 46.5005C72.7591 45.4754 71.9153 44.7263 70.4486 44.7263C68.9819 44.7263 68.0515 45.6016 68.0515 46.7213C68.0515 47.9987 68.8952 48.464 70.5748 48.9608C72.2229 49.4891 72.6014 49.8913 72.6014 50.7035C72.6014 51.5787 71.8522 52.1071 70.6694 52.1071C69.5812 52.1071 68.8006 51.5472 68.4615 50.459L67.807 50.7113C68.1776 51.9572 69.2106 52.7694 70.6694 52.7694C72.2229 52.7694 73.382 51.9257 73.382 50.6483C73.3189 49.4024 72.5383 48.874 70.9218 48.3457" fill="#4F2683"/>
</g>
<mask id="mask1_11_665" style="mask-type:luminance" maskUnits="userSpaceOnUse" x="0" y="0" width="228" height="55">
<path d="M228 0H0V54.3229H228V0Z" fill="white"/>
</mask>
<g mask="url(#mask1_11_665)">
<path d="M63.6041 46.9658C63.6041 45.5937 62.642 44.8761 60.8915 44.8761H58.2735V52.6354H59.0226V49.15H60.9546L62.8549 52.6354H63.6987L61.7352 49.0869C62.8865 48.8346 63.6041 48.2117 63.6041 46.9658ZM60.8599 48.4955H59.0542V45.5385H60.8599C62.1689 45.5385 62.8865 45.9091 62.8865 46.9736C62.8549 48.1249 62.1374 48.5034 60.8599 48.5034" fill="#4F2683"/>
</g>
<mask id="mask2_11_665" style="mask-type:luminance" maskUnits="userSpaceOnUse" x="0" y="0" width="228" height="55">
<path d="M228 0H0V54.3229H228V0Z" fill="white"/>
</mask>
<g mask="url(#mask2_11_665)">
<path d="M57.4692 34.6645C51.4289 34.6645 50.5221 30.0515 50.5221 23.0176V22.647H66.0643C66.0643 16.386 62.579 12.0569 56.0971 12.0569C48.9923 12.0569 45.1994 17.5057 45.1994 24.0822C45.1994 30.6586 48.7794 36.139 56.0735 36.139C60.5918 36.139 64.2349 34.4279 66.1353 29.4758L65.0471 29.1368C63.7066 32.1884 61.5302 34.6802 57.4771 34.6802M50.5931 20.1316C50.8454 16.6462 52.1228 13.2476 55.7975 13.2476C59.7244 13.2476 60.5603 16.2992 60.6549 19.5402V21.1882H50.53C50.53 20.8491 50.5615 20.4391 50.5931 20.1316Z" fill="#4F2683"/>
</g>
<mask id="mask3_11_665" style="mask-type:luminance" maskUnits="userSpaceOnUse" x="0" y="0" width="228" height="55">
<path d="M228 0H0V54.3229H228V0Z" fill="white"/>
</mask>
<g mask="url(#mask3_11_665)">
<path d="M173.086 34.3806V18.6491C173.086 13.9809 170.783 11.9543 166.202 11.9543C162.369 11.9543 159.538 13.8232 158.103 17.001H158.009V11.8282C157.386 12.3565 156.51 12.9479 154.46 12.9479H149.508V14.1307H153.246V34.3727H149.201V35.5555H161.723V34.3727H158.017V22.1976C158.017 17.8369 160.256 13.6339 164.498 13.6339C166.864 13.6339 168.331 14.9745 168.331 18.4914V34.3727H164.625V35.5555H176.8V34.3727H173.094L173.086 34.3806Z" fill="#4F2683"/>
</g>
<mask id="mask4_11_665" style="mask-type:luminance" maskUnits="userSpaceOnUse" x="0" y="0" width="228" height="55">
<path d="M228 0H0V54.3229H228V0Z" fill="white"/>
</mask>
<g mask="url(#mask4_11_665)">
<path d="M49.3077 2.98859V1.83731H39.7742V2.98859H43.9772L42.889 6.82092L36.2889 27.0077H36.1942L28.7819 6.73418L27.5045 2.99647H32.2357V1.8452H17.6003V2.99647H21.6771L24.0743 9.44677L18.0025 27.0156H17.9079L10.5902 6.8288L9.31272 2.99647H13.5157V1.8452H0V2.99647H3.27246L4.98361 7.54638L15.4476 36.0759H16.4096C16.4096 36.0759 22.8284 17.7028 24.8786 11.7493L33.9074 36.0759H34.901L44.3714 7.19942L45.8697 2.99647H49.2999L49.3077 2.98859Z" fill="#4F2683"/>
</g>
<mask id="mask5_11_665" style="mask-type:luminance" maskUnits="userSpaceOnUse" x="0" y="0" width="228" height="55">
<path d="M228 0H0V54.3229H228V0Z" fill="white"/>
</mask>
<g mask="url(#mask5_11_665)">
<path d="M78.7126 34.8222C74.1312 34.8222 71.4264 31.8336 70.425 27.4729H69.2737L70.8035 35.8788C71.3003 35.2874 71.9548 35.0982 72.6093 35.0982C73.9182 35.0982 75.5978 36.0917 78.5864 36.0917C83.3492 36.0917 86.9687 33.4422 86.9687 28.9002C86.9687 19.8398 73.9813 22.237 73.9813 16.3781C73.9813 14.5092 75.3219 13.1372 77.6875 13.1372C81.4883 13.1372 83.6016 15.8182 84.5084 18.9961H85.6281L84.3192 11.8361C83.8855 12.3329 83.294 12.5852 82.608 12.5852C81.023 12.5852 80.0531 11.9307 77.656 11.9307C73.5161 11.9307 70.3382 14.1702 70.3382 18.2548C70.3382 26.6055 83.1363 24.8234 83.1363 30.8085C83.1363 33.5526 81.1729 34.8301 78.7126 34.8301" fill="#4F2683"/>
</g>
<mask id="mask6_11_665" style="mask-type:luminance" maskUnits="userSpaceOnUse" x="0" y="0" width="228" height="55">
<path d="M228 0H0V54.3229H228V0Z" fill="white"/>
</mask>
<g mask="url(#mask6_11_665)">
<path d="M15.2032 49.8913C15.2032 51.1687 14.5487 52.0676 13.1135 52.0676C11.6784 52.0676 11.0239 51.1372 11.0239 49.8597V44.8446H10.2747V49.9859C10.2747 51.5393 11.1816 52.7616 13.1056 52.7616C15.0297 52.7616 15.9365 51.5157 15.9365 49.9859V44.8761H15.1874V49.8913H15.2032Z" fill="#4F2683"/>
</g>
<mask id="mask7_11_665" style="mask-type:luminance" maskUnits="userSpaceOnUse" x="0" y="0" width="228" height="55">
<path d="M228 0H0V54.3229H228V0Z" fill="white"/>
</mask>
<g mask="url(#mask7_11_665)">
<path d="M149.319 44.8209L146.425 52.6039H147.143L148.018 50.2067H151.44L152.315 52.6039H153.096L150.202 44.8209H149.327H149.319ZM148.262 49.5837L149.729 45.6252H149.761L151.227 49.5837H148.27H148.262Z" fill="#4F2683"/>
</g>
<mask id="mask8_11_665" style="mask-type:luminance" maskUnits="userSpaceOnUse" x="0" y="0" width="228" height="55">
<path d="M228 0H0V54.3229H228V0Z" fill="white"/>
</mask>
<g mask="url(#mask8_11_665)">
<path d="M41.3355 51.6418L38.9936 44.8525H38.2523L40.957 52.6669H41.6746L44.3872 44.8525H43.6696L41.3355 51.6418Z" fill="#4F2683"/>
</g>
<mask id="mask9_11_665" style="mask-type:luminance" maskUnits="userSpaceOnUse" x="0" y="0" width="228" height="55">
<path d="M228 0H0V54.3229H228V0Z" fill="white"/>
</mask>
<g mask="url(#mask9_11_665)">
<path d="M26.3532 51.2633H26.3216L22.0556 44.8525H21.2434V52.6354H21.961V46.0353H21.9925L26.3847 52.6354H27.0708V44.8525H26.3532V51.2633Z" fill="#4F2683"/>
</g>
<mask id="mask10_11_665" style="mask-type:luminance" maskUnits="userSpaceOnUse" x="0" y="0" width="228" height="55">
<path d="M228 0H0V54.3229H228V0Z" fill="white"/>
</mask>
<g mask="url(#mask10_11_665)">
<path d="M33.5763 44.8525H32.8271V52.6117H33.5763V44.8525Z" fill="#4F2683"/>
</g>
<mask id="mask11_11_665" style="mask-type:luminance" maskUnits="userSpaceOnUse" x="0" y="0" width="228" height="55">
<path d="M228 0H0V54.3229H228V0Z" fill="white"/>
</mask>
<g mask="url(#mask11_11_665)">
<path d="M126.68 29.4285L125.592 29.0894C124.283 32.2042 122.075 34.6645 118.022 34.6645C111.981 34.6645 111.074 30.0515 111.074 23.0176V22.647H126.617C126.617 16.386 123.131 12.0569 116.65 12.0569C109.545 12.0569 105.752 17.5057 105.752 24.0822C105.752 30.6586 109.332 36.139 116.626 36.139C121.144 36.1075 124.787 34.4279 126.688 29.4443M111.145 20.1316C111.398 16.6462 112.675 13.2476 116.35 13.2476C120.277 13.2476 121.113 16.2992 121.207 19.5402V21.1882H111.082C111.114 20.8491 111.114 20.4391 111.145 20.1316Z" fill="#4F2683"/>
</g>
<mask id="mask12_11_665" style="mask-type:luminance" maskUnits="userSpaceOnUse" x="0" y="0" width="228" height="55">
<path d="M228 0H0V54.3229H228V0Z" fill="white"/>
</mask>
<g mask="url(#mask12_11_665)">
<path d="M140.787 51.2633H140.755L136.458 44.8525H135.677V52.6354H136.363V46.0353H136.395L140.818 52.6354H141.473V44.8525H140.787V51.2633Z" fill="#4F2683"/>
</g>
<mask id="mask13_11_665" style="mask-type:luminance" maskUnits="userSpaceOnUse" x="0" y="0" width="228" height="55">
<path d="M228 0H0V54.3229H228V0Z" fill="white"/>
</mask>
<g mask="url(#mask13_11_665)">
<path d="M116.713 52.1071C115.214 52.1071 114.221 50.8612 114.221 48.7084C114.221 46.7134 115.183 45.4044 116.681 45.4044C117.864 45.4044 118.455 46.0589 118.802 47.2733L119.52 47.084C119.149 45.6489 118.274 44.7184 116.72 44.7184C114.789 44.7184 113.48 46.3665 113.48 48.7084C113.48 51.1687 114.757 52.7537 116.72 52.7537C118.274 52.7537 119.275 51.7917 119.646 50.2619L118.928 50.1042C118.621 51.4132 117.872 52.0992 116.72 52.0992" fill="#4F2683"/>
</g>
<mask id="mask14_11_665" style="mask-type:luminance" maskUnits="userSpaceOnUse" x="0" y="0" width="228" height="55">
<path d="M228 0H0V54.3229H228V0Z" fill="white"/>
</mask>
<g mask="url(#mask14_11_665)">
<path d="M78.8072 44.8525H78.0581V52.6117H78.8072V44.8525Z" fill="#4F2683"/>
</g>
<mask id="mask15_11_665" style="mask-type:luminance" maskUnits="userSpaceOnUse" x="0" y="0" width="228" height="55">
<path d="M228 0H0V54.3229H228V0Z" fill="white"/>
</mask>
<g mask="url(#mask15_11_665)">
<path d="M160.098 44.8525H158.135V52.6117H160.098C162.59 52.6117 163.962 51.2712 163.962 48.7163C163.962 46.1614 162.622 44.8525 160.098 44.8525ZM160.225 51.9888H158.884V45.5385H160.193C162.125 45.5385 163.245 46.5321 163.245 48.7479C163.245 50.9873 162.156 51.9888 160.225 51.9888Z" fill="#4F2683"/>
</g>
<mask id="mask16_11_665" style="mask-type:luminance" maskUnits="userSpaceOnUse" x="0" y="0" width="228" height="55">
<path d="M228 0H0V54.3229H228V0Z" fill="white"/>
</mask>
<g mask="url(#mask16_11_665)">
<path d="M147.947 15.1953C147.947 13.3264 146.575 11.9228 144.02 11.9228C140.219 11.9228 138.319 15.3451 137.325 18.0577H137.262V11.7336C136.513 12.3565 135.732 12.9479 133.714 12.9479H128.446V14.1307H132.468V34.3727H128.446V35.5555H141.158V34.3727H137.262V24.4055C137.262 19.1143 139.88 13.3185 143.208 13.3185C143.46 13.3185 143.61 13.3501 143.768 13.4132C143.208 13.8784 142.837 14.596 142.837 15.3766C142.837 16.8433 143.957 17.9 145.36 17.9C146.89 17.9 147.947 16.6225 147.947 15.1874" fill="#4F2683"/>
</g>
<mask id="mask17_11_665" style="mask-type:luminance" maskUnits="userSpaceOnUse" x="0" y="0" width="228" height="55">
<path d="M228 0H0V54.3229H228V0Z" fill="white"/>
</mask>
<g mask="url(#mask17_11_665)">
<path d="M126.861 44.8209L123.967 52.6039H124.685L125.56 50.2067H128.982L129.858 52.6039H130.638L127.744 44.8209H126.869H126.861ZM125.805 49.5837L127.271 45.6252H127.303L128.769 49.5837H125.812H125.805Z" fill="#4F2683"/>
</g>
<mask id="mask18_11_665" style="mask-type:luminance" maskUnits="userSpaceOnUse" x="0" y="0" width="228" height="55">
<path d="M228 0H0V54.3229H228V0Z" fill="white"/>
</mask>
<g mask="url(#mask18_11_665)">
<path d="M94.9724 48.5586L92.7881 44.8525H91.9759L94.5939 49.2447V52.6354H95.343V49.2447L97.961 44.8525H97.1488L94.9724 48.5586Z" fill="#4F2683"/>
</g>
<mask id="mask19_11_665" style="mask-type:luminance" maskUnits="userSpaceOnUse" x="0" y="0" width="228" height="55">
<path d="M228 0H0V54.3229H228V0Z" fill="white"/>
</mask>
<g mask="url(#mask19_11_665)">
<path d="M82.8525 45.5621H85.3758V52.6354H86.0934V45.5621H88.6167V44.8525H82.8525V45.5621Z" fill="#4F2683"/>
</g>
<mask id="mask20_11_665" style="mask-type:luminance" maskUnits="userSpaceOnUse" x="0" y="0" width="228" height="55">
<path d="M228 0H0V54.3229H228V0Z" fill="white"/>
</mask>
<g mask="url(#mask20_11_665)">
<path d="M100.232 34.2308C98.4578 34.2308 97.7087 33.111 97.7087 30.3353V14.1386H103.473V12.9558H97.7087V5.22806H96.7151C96.0606 10.2117 93.5688 12.7666 89.0189 13.2003V14.1307H92.8197V30.1382C92.8197 33.1268 93.4111 35.9971 98.2685 35.9971C101.352 35.9971 103.189 34.5935 104.183 32.7246L104.553 31.9755L103.528 31.5103C102.937 32.8823 101.943 34.2229 100.224 34.2229" fill="#4F2683"/>
</g>
<mask id="mask21_11_665" style="mask-type:luminance" maskUnits="userSpaceOnUse" x="0" y="0" width="228" height="55">
<path d="M228 0H0V54.3229H228V0Z" fill="white"/>
</mask>
<g mask="url(#mask21_11_665)">
<path d="M170.941 44.8209L168.047 52.6039H168.764L169.64 50.2067H173.062L173.937 52.6039H174.718L171.824 44.8209H170.949H170.941ZM169.916 49.5837L171.382 45.6252H171.414L172.881 49.5837H169.924H169.916Z" fill="#4F2683"/>
</g>
<mask id="mask22_11_665" style="mask-type:luminance" maskUnits="userSpaceOnUse" x="0" y="0" width="228" height="55">
<path d="M228 0H0V54.3229H228V0Z" fill="white"/>
</mask>
<g mask="url(#mask22_11_665)">
<path d="M105.499 47.9988C105.034 47.9988 104.719 48.3378 104.719 48.7794C104.719 49.2447 105.058 49.5601 105.499 49.5601C105.965 49.5601 106.28 49.221 106.28 48.7794C106.28 48.3142 105.941 47.9988 105.499 47.9988Z" fill="#4F2683"/>
</g>
<mask id="mask23_11_665" style="mask-type:luminance" maskUnits="userSpaceOnUse" x="0" y="0" width="228" height="55">
<path d="M228 0H0V54.3229H228V0Z" fill="white"/>
</mask>
<g mask="url(#mask23_11_665)">
<path d="M228 22.4893V2.95705C222.953 1.18282 215.013 0.0315437 206.071 0.0315437C197.128 0.0315437 189.503 1.18282 184.457 2.95705V22.7653C184.457 25.6908 184.33 30.8637 186.98 37.0301C190.284 44.7263 196.663 50.4827 205.763 54.1021L206.228 54.2914L206.693 54.1021C215.817 50.4906 222.204 44.6948 225.477 36.9986C228.126 30.8321 228 25.2887 228 22.4814" fill="white"/>
</g>
<mask id="mask24_11_665" style="mask-type:luminance" maskUnits="userSpaceOnUse" x="0" y="0" width="228" height="55">
<path d="M228 0H0V54.3229H228V0Z" fill="white"/>
</mask>
<g mask="url(#mask24_11_665)">
<path d="M228 22.4893V2.95705C222.953 1.18282 215.013 0.0315437 206.071 0.0315437C197.128 0.0315437 189.503 1.18282 184.425 2.95705V22.7653C184.425 25.6908 184.299 30.8637 186.948 37.0301C190.252 44.7263 196.632 50.4827 205.731 54.1336L206.197 54.3229L206.662 54.1336C215.785 50.5221 222.173 44.7263 225.445 37.0301C228.126 30.8321 228 25.2887 228 22.4814M210.991 43.8195C210.896 43.851 210.77 43.8826 210.684 43.9456C210.62 43.9772 210.589 44.0087 210.589 44.0403C210.589 44.0718 210.62 44.1349 210.652 44.1664C210.589 44.3872 210.092 44.3557 209.934 44.4188C209.808 44.4818 209.627 44.608 209.532 44.7263C209.438 44.8209 209.469 44.7894 209.311 44.8209C209.059 44.884 209.091 45.1285 209.185 45.3177C209.28 45.507 209.406 45.6568 209.587 45.7829C209.651 45.8145 209.927 45.9407 210.084 45.9407C209.927 46.0984 209.745 46.0668 209.556 46.1299C209.461 46.1614 209.367 46.2245 209.248 46.2561C209.091 46.2876 209.028 46.2876 208.878 46.2561C208.689 46.2245 208.507 46.2245 208.349 46.2561C208.223 46.2561 208.129 46.2561 208.01 46.193C207.947 46.1614 207.853 46.0984 207.821 46.0984C207.663 46.0668 207.79 46.2876 207.821 46.3822C207.6 46.5715 207.135 46.3192 206.946 46.193C206.788 46.0984 206.693 45.8539 206.512 45.7908V46.3822C206.544 47.0052 206.544 47.5966 206.575 48.188C206.575 48.5271 206.607 48.9056 206.607 49.2447H205.952L206.047 45.7277C205.826 45.7277 205.739 45.9485 205.582 46.0116C205.487 46.0432 205.361 46.0432 205.274 46.1062C205.187 46.1693 205.116 46.264 204.99 46.327C204.896 46.3586 204.769 46.3901 204.651 46.3901C204.493 46.3901 204.344 46.3586 204.281 46.264C204.344 46.1378 204.281 46.0116 204.186 45.9564C204.091 45.9012 203.934 45.988 203.847 46.0195C203.382 46.1457 202.853 45.8618 202.412 45.6804C202.412 45.6804 203.437 45.4912 203.437 44.8998C203.437 44.7421 203.374 44.5922 203.216 44.4976C203.09 44.403 202.877 44.2768 202.719 44.2453C202.467 44.2137 202.286 44.2768 202.128 44.2137C202.159 44.1191 202.002 44.0245 201.907 43.9299C201.812 43.8668 201.686 43.8352 201.568 43.7722C201.347 43.6775 201.071 43.4646 201.134 43.2123C201.292 43.3069 201.442 43.3069 201.599 43.2438C201.726 43.1807 201.757 43.0861 201.757 42.9363C201.757 42.747 201.536 42.6288 201.473 42.4711C201.41 42.3449 201.347 42.2503 201.253 42.1635C201.158 42.1004 201 42.0689 201 41.9112C201.189 41.9743 201.253 41.8166 201.126 41.6904C201 41.5327 200.819 41.4696 200.724 41.2882C200.63 41.1305 200.566 40.9492 200.566 40.7599C200.566 40.6968 200.566 40.5391 200.661 40.5391C200.724 40.5076 200.756 40.6337 200.787 40.6653C200.913 40.8545 201.095 40.9176 201.253 41.0044C201.473 41.1305 201.56 41.1936 201.812 41.2251C202.309 41.3198 202.625 41.2567 202.901 40.9728C202.964 40.9413 203.09 40.8467 203.121 40.8467C203.216 40.9728 203.492 41.2488 203.744 41.3434C203.934 41.4065 204.146 41.651 204.241 41.7456C204.58 42.0531 204.801 41.8718 204.801 41.5879C204.801 41.3356 204.706 41.028 204.643 40.8072C204.549 40.4366 204.486 40.2474 204.422 39.8767C204.391 39.6244 204.265 39.443 204.17 39.2853C204.076 39.1276 203.949 38.6939 204.265 38.8516C204.391 38.9147 204.572 39.0409 204.73 39.0093C205.101 38.9463 205.132 38.5756 205.195 38.2602C205.227 38.1025 205.227 37.9763 205.29 37.8265C205.321 37.7319 205.353 37.7004 205.416 37.7004C205.448 37.7319 205.479 37.8265 205.574 37.8265C205.7 37.8265 205.826 37.5742 205.858 37.4559C205.889 37.3297 205.921 37.2036 205.952 37.0853C206.015 36.896 206.047 36.6831 206.142 36.4623C206.173 36.5885 206.236 36.833 206.268 36.9276C206.362 37.1484 206.425 37.3613 206.552 37.5505C206.678 37.7082 206.804 37.7398 206.985 37.6767C207.08 37.8975 207.08 38.552 207.238 38.8595C207.332 39.0488 207.49 39.1119 207.64 39.1119C207.79 39.1119 207.892 39.0803 207.979 39.0172C208.105 38.9541 208.231 38.8595 208.318 38.8595C208.349 38.8595 208.381 38.8911 208.381 38.9226C208.381 39.0803 208.16 39.4509 208.129 39.514C208.066 39.7033 207.939 39.9162 207.908 40.0739C207.876 40.2316 207.813 40.413 207.782 40.5707C207.75 40.7599 207.719 40.9728 207.687 41.2567C207.687 41.4144 207.687 41.7219 207.813 41.8166C208.002 41.9427 208.247 41.6904 208.373 41.5642C208.562 41.4065 208.712 41.2804 208.838 41.099C208.933 40.9728 209.146 40.6022 209.335 40.6337C209.335 40.7914 209.556 40.9728 209.832 41.0359C210.021 41.0674 210.171 41.0359 210.297 40.9413C210.402 40.8782 210.505 40.8677 210.605 40.9097C210.944 41.0359 211.535 40.6022 211.724 40.4129C211.787 40.476 211.724 40.6337 211.63 40.752C211.472 41.0044 211.291 41.0911 211.291 41.2804C211.291 41.4381 211.07 41.7456 211.101 41.9348C211.038 42.0295 210.849 42.1556 210.762 42.2187C210.51 42.4395 210.36 42.684 210.455 43.0309C210.549 43.3148 210.762 43.4646 211.015 43.4646C211.236 43.4646 211.385 43.3069 211.48 43.3385C211.511 43.37 211.417 43.4962 211.354 43.5592C211.322 43.7485 211.101 43.8116 210.983 43.8431M223.971 16.2125H188.462L186.191 13.8153L190.71 15.3136C190.339 14.1938 189.306 13.7838 188.62 12.8217C188.218 12.2619 188.092 11.6705 188.123 11.1106C188.249 11.3314 188.462 11.6074 188.809 11.8597C189.148 12.0805 189.59 12.2619 190.181 12.388C191.238 12.6088 191.798 12.9479 192.271 13.3816L189.968 9.24175L193.958 11.8282C193.801 10.6454 192.965 10.0224 192.555 8.93422C192.303 8.27973 192.303 7.68832 192.523 7.12845C192.586 7.34924 192.744 7.68832 192.989 8.00374C193.233 8.31916 193.643 8.59515 194.171 8.84748C195.197 9.34426 195.638 9.84105 195.977 10.4009L194.763 5.75638L197.972 9.21021C198.098 8.05893 197.475 7.24674 197.349 6.09546C197.286 5.40942 197.412 4.81802 197.751 4.32123C197.751 4.57357 197.814 4.91264 198.004 5.28326C198.193 5.62233 198.469 6.00083 198.934 6.40299C199.809 7.18365 200.117 7.77506 200.338 8.42955L200.306 3.54057L202.546 7.68044C202.979 6.62379 202.514 5.65387 202.703 4.53414C202.798 3.8481 203.106 3.31978 203.547 2.91762C203.484 3.16996 203.453 3.50903 203.547 3.91119C203.642 4.2818 203.831 4.72339 204.17 5.22017C204.856 6.21374 204.982 6.86823 205.014 7.55427L206.197 2.75991L207.348 7.34136C208.034 6.41088 207.845 5.3148 208.31 4.25815C208.594 3.60365 208.996 3.23304 209.524 2.94916C209.398 3.16996 209.272 3.50903 209.272 3.91119C209.24 4.31334 209.335 4.78647 209.556 5.34634C209.958 6.43453 209.927 7.08902 209.808 7.77506L212.111 3.47749L212.079 8.17722C212.986 7.45964 213.041 6.3399 213.727 5.43308C214.161 4.87321 214.658 4.62088 215.226 4.47106C215.068 4.66031 214.855 4.93629 214.729 5.34634C214.603 5.71695 214.571 6.19008 214.634 6.81303C214.76 7.99585 214.571 8.65034 214.264 9.2733L217.599 5.66176L216.385 10.2117C217.378 9.74642 217.757 8.77651 218.656 8.05894C219.216 7.62524 219.744 7.40444 220.335 7.43598C220.146 7.56215 219.87 7.8066 219.649 8.15356C219.429 8.49264 219.31 8.93422 219.216 9.55717C219.026 10.74 218.687 11.2999 218.254 11.8282H218.285L222.425 9.14713L220.154 13.2239C221.274 13.0662 221.802 12.1673 222.867 11.7257C223.489 11.4418 224.112 11.3866 224.672 11.5364C224.452 11.631 224.112 11.7888 223.829 12.0647C223.545 12.3407 223.3 12.7508 223.048 13.3106C222.583 14.3988 222.117 14.8641 221.55 15.2741L221.581 15.3057L226.249 13.7522L223.978 16.2125H223.971ZM205.566 26.2743C205.503 26.1797 205.258 25.6198 203.886 25.6198H199.896V19.2011H200.18V25.3044H203.823C204.107 25.3044 204.352 25.336 204.541 25.3675C205.29 25.4937 205.566 25.7697 205.724 25.9905H206.654C206.78 25.7697 207.088 25.4937 207.805 25.3675C208.026 25.336 208.239 25.3044 208.523 25.3044H212.166V19.2011H212.45V25.6198H208.46C207.088 25.6198 206.875 26.1797 206.843 26.2743H205.566ZM206.031 25.1861V25.4937C205.471 24.4686 202.948 24.6184 200.795 24.8392V18.8935C201.946 18.8935 203.098 18.7358 203.973 18.7358C205.093 18.7358 205.873 18.9251 206 19.5796V24.9338C205.314 24.1216 203.255 24.1847 201.111 24.4055V24.5947C203.287 24.3109 205.534 24.2557 206.031 25.1861ZM201.544 22.8205H203.043V22.6943H202.916C202.546 22.6943 202.546 22.6628 202.546 22.4105V21.3854C202.546 21.1015 202.577 21.0778 202.83 21.0778H203.05V20.9516H201.552V21.0778H201.773C202.025 21.0778 202.057 21.1094 202.057 21.3854V22.4105C202.057 22.6628 202.025 22.6943 201.655 22.6943H201.529L201.56 22.8205H201.544ZM204.099 21.5746C203.815 21.4169 203.634 21.1724 203.634 20.857C203.634 20.5732 203.823 20.1079 204.478 20.1079C204.974 20.1079 205.195 20.4154 205.195 20.6993C205.195 20.9832 205.101 21.1646 204.667 21.3538C205.069 21.5746 205.258 21.7875 205.258 22.1029C205.258 22.5366 204.919 22.8836 204.383 22.8836C203.918 22.8836 203.602 22.5445 203.602 22.1976C203.571 21.8269 203.886 21.6377 204.099 21.5746ZM204.817 22.3237C204.817 22.0714 204.691 21.9531 204.225 21.6377C204.005 21.7639 203.886 21.9768 203.886 22.166C203.886 22.5366 204.17 22.7259 204.351 22.7259C204.691 22.7259 204.817 22.5051 204.817 22.3237ZM204.564 21.3302C204.754 21.1724 204.872 21.0226 204.872 20.7703C204.872 20.4628 204.651 20.2735 204.438 20.2735C204.154 20.2735 204.036 20.4943 204.036 20.7072C204.005 20.928 204.194 21.0778 204.564 21.3302ZM208.397 18.7122C209.304 18.7122 210.423 18.8699 211.606 18.8699V24.8155C209.453 24.5947 206.938 24.4449 206.37 25.47V25.1625C206.867 24.232 209.146 24.2872 211.259 24.508V24.3187C209.106 24.0979 207.025 24.0349 206.37 24.8471V19.4928C206.496 18.9014 207.277 18.7122 208.397 18.7122ZM206.993 21.6377H207.119L207.214 21.3854H208.334L207.245 23.6248L207.435 23.6879L208.807 21.0068L208.775 20.9753H207.096L207.001 21.6298L206.993 21.6377ZM209.674 21.5746C209.39 21.4169 209.209 21.1724 209.209 20.857C209.209 20.5732 209.398 20.1079 210.021 20.1079C210.518 20.1079 210.739 20.4154 210.739 20.6993C210.739 20.9832 210.644 21.1646 210.21 21.3538C210.613 21.5746 210.802 21.7875 210.802 22.1029C210.802 22.5366 210.463 22.8836 209.927 22.8836C209.461 22.8836 209.146 22.5445 209.146 22.1976C209.177 21.8269 209.453 21.6377 209.674 21.5746ZM210.392 22.3237C210.392 22.0714 210.266 21.9531 209.8 21.6377C209.58 21.7639 209.461 21.9768 209.461 22.166C209.461 22.5366 209.745 22.7259 209.927 22.7259C210.266 22.7259 210.392 22.5051 210.392 22.3237ZM210.139 21.3302C210.329 21.1724 210.447 21.0226 210.447 20.7703C210.447 20.4628 210.226 20.2735 210.013 20.2735C209.729 20.2735 209.611 20.4943 209.611 20.7072C209.611 20.9201 209.769 21.0778 210.139 21.3302ZM219.484 43.4173L206.181 32.5748L192.878 43.4173C186.026 35.4451 186.057 26.2586 186.089 22.4893V16.2598H186.12L206.181 32.6142L226.242 16.2598H226.273V22.4893C226.305 26.2586 226.368 35.4451 219.484 43.4173ZM194.597 37.59C197.428 37.59 199.739 35.2874 199.739 32.4486C199.739 29.6099 197.468 27.2758 194.629 27.2758C191.79 27.2758 189.487 29.5783 189.487 32.4171C189.456 35.248 191.758 37.59 194.597 37.59ZM197.901 30.3038C197.901 30.4615 197.838 30.706 197.775 30.8006C197.712 30.8321 197.586 30.8321 197.468 30.8321C197.404 30.8321 197.373 30.8321 197.341 30.9267C197.215 31.1475 197.089 31.3289 196.971 31.6128C196.939 31.9203 196.939 32.2042 196.908 32.5748C196.908 32.701 196.908 32.8587 196.845 33.0085C196.718 33.1662 196.592 33.2608 196.505 33.316C196.474 33.316 196.474 33.3791 196.537 33.3476C196.6 33.3476 196.821 33.2214 196.876 33.1899C197.034 33.1268 197.247 32.9375 197.499 33.1899C197.625 33.316 197.807 33.4422 198.059 33.592C198.154 33.6551 198.185 33.6236 198.311 33.7497C198.406 33.8444 198.437 34.0021 198.501 34.0888C198.658 34.3412 198.658 34.491 198.658 34.5225C198.564 34.5856 198.225 34.5856 198.098 34.5225C198.067 34.4279 198.067 34.3017 198.035 34.2386C197.972 34.1125 197.941 34.0494 197.878 34.0178C197.783 33.9548 197.688 33.8601 197.594 33.7971C197.341 33.6393 197.31 33.6078 197.128 33.7024C196.939 33.7971 196.695 34.0415 196.411 34.1677C196.19 34.2938 195.567 34.1677 195.417 34.01C195.48 34.1677 195.819 34.349 196.072 34.4752C196.04 34.5698 195.946 35.0351 195.764 35.3189C195.764 35.2559 195.701 35.1928 195.638 35.1928C195.449 35.1928 195.48 35.5634 195.331 35.7526C195.331 35.6896 195.267 35.6265 195.204 35.6265C195.047 35.6265 195.047 35.9656 194.897 36.1548C194.865 36.0917 194.834 36.0286 194.771 36.0286C194.708 36.0286 194.645 36.0917 194.581 36.1548C194.361 36.4071 194.274 36.5254 194.053 36.7462C193.367 36.7147 192.31 36.2179 191.932 35.7842C192.586 35.0666 193.209 34.349 193.485 34.1677C193.643 33.7655 194.045 32.8587 194.203 32.4565C194.171 32.425 194.171 32.3619 194.14 32.3304C194.045 32.3934 193.919 32.3934 193.856 32.3619C193.888 32.2357 193.919 32.0544 193.856 31.9282C193.793 31.9597 193.667 31.9913 193.604 31.9597C193.635 31.8336 193.667 31.6522 193.604 31.526C193.509 31.5576 193.414 31.5891 193.351 31.5576C193.383 31.3999 193.414 31.2501 193.383 31.0608V31.0293C193.257 31.0923 192.823 31.187 192.697 31.1239C192.634 31.0608 193.004 30.6902 193.351 30.3432C193.044 30.4694 192.665 30.6271 192.042 30.7454C191.703 30.8085 190.986 30.9346 190.457 30.84C190.363 30.84 190.394 30.7138 190.489 30.7138C190.773 30.7138 191.112 30.6823 191.396 30.6192C191.459 30.5877 191.585 30.5246 191.364 30.4931C191.143 30.4615 190.741 30.3984 190.552 30.3038C190.489 30.2723 190.52 30.2092 190.584 30.2092C190.836 30.2407 191.112 30.2723 191.333 30.2723C191.459 30.2723 191.522 30.2723 191.427 30.1776C191.364 30.1461 191.206 30.0199 191.025 29.9253C190.994 29.8938 190.994 29.8622 191.025 29.8307C191.151 29.7991 191.711 30.1382 192.082 30.2328C192.176 30.2644 192.239 30.2644 192.303 30.2644C192.366 30.2644 192.397 30.2013 192.397 30.1697C192.397 30.0751 192.027 29.9174 191.837 29.7991C191.774 29.7676 191.837 29.7045 191.932 29.7045C192.121 29.7676 192.586 29.9884 192.776 30.012C192.933 30.0436 192.996 29.9805 192.996 29.949C192.965 29.8228 192.374 29.5468 192.216 29.4522C192.184 29.4206 192.216 29.3891 192.279 29.3891C192.586 29.4206 193.209 29.8543 193.493 29.7912C193.525 29.7912 193.556 29.7597 193.556 29.7282C193.525 29.602 193.028 29.3575 192.902 29.2629C192.839 29.2314 192.902 29.1683 192.996 29.1998C193.186 29.2314 193.462 29.3891 193.651 29.4837C193.746 29.5153 193.809 29.5468 193.903 29.5153C194.029 29.4837 194.124 29.3891 194.061 29.1446C194.029 28.8923 193.777 28.8056 193.627 28.7425C193.438 28.6794 193.596 28.6163 193.722 28.6479C194.006 28.7109 194.219 28.8371 194.282 29.1131V29.2708C194.282 29.4285 194.376 29.3654 194.471 29.2393C194.629 29.0185 194.66 28.774 194.629 28.6163C194.597 28.3324 194.195 28.2457 194.195 28.1826C194.195 28.1511 194.227 28.1511 194.227 28.1511C194.384 28.1195 194.755 28.3088 194.818 28.6163C194.85 28.774 194.818 28.8686 194.786 29.05C194.786 29.0816 194.818 29.1131 194.85 29.05C195.039 28.8608 195.189 28.5217 195.133 28.2063C195.07 27.8672 194.731 27.7726 194.731 27.7095C194.731 27.7095 194.763 27.6779 194.794 27.6779C194.92 27.6464 195.291 27.8672 195.386 28.2378C195.449 28.5453 195.291 29.2314 194.298 29.7676C194.731 29.673 194.826 29.673 194.889 29.736C195.386 29.6099 195.67 29.5153 195.796 29.5468C195.922 29.7676 195.638 29.8307 195.638 29.9805C195.638 30.1303 195.977 29.8859 195.922 30.1067C195.827 30.2959 195.701 30.2959 195.551 30.359C195.488 30.4221 195.181 30.6113 195.023 30.7612C195.52 31.1002 195.985 31.6049 196.017 31.6364C196.048 31.6995 196.174 31.9203 196.3 32.2279V32.2594C196.364 32.0386 196.49 31.6995 196.521 31.5418C196.553 31.3841 196.553 31.3526 196.584 31.2579C196.616 31.1949 196.774 31.0687 196.892 30.8873C196.986 30.7296 197.176 30.4852 197.231 30.3905C197.326 30.2328 197.452 30.2644 197.633 30.2013C197.665 30.2644 197.885 30.2644 197.949 30.2644M194.148 30.2959C194.148 30.2959 194.211 30.2328 194.242 30.2013C194.305 30.1697 194.432 30.1382 194.495 30.1067C194.526 30.1697 194.526 30.2644 194.463 30.3275C194.4 30.3905 194.337 30.359 194.274 30.3275C194.242 30.2959 194.179 30.2959 194.179 30.2959C194.148 30.3275 194.148 30.2959 194.148 30.2959ZM212.71 32.3856C212.71 29.5547 215.013 27.2127 217.851 27.2442C220.682 27.2442 222.961 29.5468 222.961 32.4171C222.961 35.2874 220.659 37.59 217.82 37.5584C214.981 37.5269 212.71 35.1928 212.71 32.3856ZM220.185 28.8686C220.185 28.8686 220.249 28.9633 220.249 28.9948C220.249 29.121 220.154 29.2471 220.028 29.2471C219.902 29.2471 219.807 29.1525 219.775 29.0264C219.775 28.9002 219.87 28.8056 219.965 28.8056L219.712 28.4034L219.279 28.5927C219.279 28.5927 219.342 28.6873 219.373 28.7504C219.373 28.8765 219.279 29.0027 219.153 29.0027C219.026 29.0027 218.9 28.9081 218.9 28.7819C218.9 28.6873 218.963 28.5927 219.058 28.5611C218.932 28.4034 218.624 28.1905 218.34 28.0959C218.561 28.4665 218.679 28.9712 218.648 29.3733C218.932 29.3418 219.736 29.5941 220.02 29.8386C220.272 29.4679 220.643 29.121 221.045 28.9948C220.824 28.9002 220.454 28.8371 220.17 28.8686M218.735 29.8938H218.64C218.64 29.8938 218.608 29.8622 218.577 29.8622C218.577 29.8622 218.545 29.7991 218.451 29.7991C218.325 29.7991 218.23 29.8938 218.23 29.9568C218.23 29.9884 218.23 30.0515 218.261 30.083C218.293 30.1145 218.325 30.1461 218.356 30.1461H218.451C218.514 30.1145 218.545 30.0515 218.545 30.0199C218.545 29.9884 218.608 29.9884 218.703 29.9568C218.703 29.9568 218.714 29.9358 218.735 29.8938ZM217.331 29.9884C217.299 30.0515 217.299 30.083 217.299 30.1145L217.331 30.1461C217.299 30.2092 217.331 30.3353 217.331 30.4536C217.363 30.5482 217.426 30.5798 217.552 30.5798V30.6744C217.457 30.706 217.394 30.706 217.331 30.706C217.11 30.706 216.992 30.5798 217.023 30.3669C217.023 30.3353 217.055 30.3038 217.055 30.2723C217.055 30.2407 217.055 30.2407 217.023 30.2407C216.96 30.2092 216.716 30.3984 216.684 30.6429C216.653 30.8873 216.779 31.0135 216.992 31.0135C217.118 31.0135 217.244 31.0135 217.394 30.9504C217.646 30.8558 217.954 30.8242 218.143 30.9819C218.017 30.9504 217.646 30.9819 217.552 31.0135C217.394 31.045 217.331 31.3526 217.489 31.3841C217.615 31.3841 218.112 31.3526 218.143 31.3841C218.08 31.6049 217.773 31.8493 217.489 31.9124C217.299 31.8493 216.771 31.8493 216.527 31.944C216.219 31.6049 215.998 30.9504 215.967 30.7296C215.967 30.635 215.967 30.5088 215.998 30.4221C216.093 30.2328 216.282 30.2644 216.369 30.1145C216.432 30.0199 216.4 29.9253 216.4 29.8307C216.4 29.7991 216.495 29.6414 216.369 29.6099C216.337 29.673 216.243 29.7045 216.18 29.673C216.117 29.6414 216.054 29.6414 215.99 29.673C215.896 29.7045 215.864 29.8622 215.77 29.9568C215.738 30.0199 215.675 29.9884 215.675 29.8938C215.707 29.7676 215.77 29.6414 215.738 29.5231C215.707 29.397 215.612 29.3023 215.486 29.2393C215.423 29.2077 215.36 29.1446 215.297 29.1446C215.233 29.1131 215.17 29.1446 215.17 29.1762C215.202 29.2077 215.233 29.2393 215.233 29.2708C215.233 29.397 215.107 29.4601 215.107 29.5547C215.107 29.7124 215.233 29.8622 215.233 29.9568C215.233 30.0199 215.202 30.0199 215.139 29.9884C215.044 29.9568 214.918 29.8622 214.8 29.8622C214.705 29.8622 214.642 29.9568 214.547 29.9884C214.516 29.9884 214.358 29.9884 214.39 30.083C214.484 30.1145 214.547 30.1461 214.579 30.2407C214.61 30.3038 214.61 30.3669 214.674 30.3984C214.768 30.4615 214.981 30.4615 215.076 30.4615C215.139 30.4615 215.202 30.5246 215.233 30.6508C215.233 30.7454 215.202 30.84 215.17 30.9346C215.076 31.0608 215.044 31.2185 215.076 31.3368C215.107 31.2737 215.139 31.2737 215.202 31.2737C215.297 31.2737 215.328 31.3683 215.265 31.526C215.202 31.6522 215.17 31.7784 215.233 31.9282C215.265 31.8651 215.297 31.8336 215.36 31.8336C215.454 31.8336 215.486 31.9282 215.423 32.0859C215.36 32.2121 215.36 32.3698 215.423 32.4881C215.454 32.425 215.486 32.3934 215.549 32.3934C215.643 32.3934 215.675 32.4881 215.707 32.5512C215.801 32.8035 215.959 32.9218 216.33 32.9218C216.203 33.1741 215.084 33.0164 214.65 32.9533C214.555 32.9533 214.492 32.9218 214.461 32.8271C214.398 32.6379 214.555 32.5196 214.461 32.3304C214.429 32.2357 214.334 32.2042 214.271 32.1727C214.24 32.1411 214.145 32.0149 214.051 32.078C214.082 32.1411 214.082 32.2042 213.988 32.2673C213.924 32.2988 213.893 32.3619 213.861 32.425C213.83 32.5512 213.956 32.6773 213.988 32.7641C214.019 32.8587 213.956 32.8902 213.893 32.8271C213.798 32.7325 213.641 32.5433 213.459 32.5433C213.333 32.5433 213.302 32.6064 213.238 32.6694C213.207 32.701 213.018 32.701 213.049 32.7956C213.112 32.7956 213.207 32.8587 213.207 32.9533C213.238 33.0164 213.238 33.0795 213.301 33.1426C213.459 33.2687 213.672 33.2056 213.83 33.2372C213.893 33.2372 213.893 33.3003 213.83 33.3318C213.704 33.3949 213.546 33.458 213.491 33.5526C213.428 33.6472 213.459 33.7734 213.459 33.8601C213.459 33.8917 213.396 34.0494 213.491 34.0494C213.554 33.9863 213.617 33.9548 213.712 33.9548C213.775 33.9548 213.838 33.9863 213.901 33.9548C214.027 33.8917 214.027 33.7971 214.09 33.7024C214.122 33.6393 214.185 33.6078 214.248 33.6078C214.311 33.6078 214.342 33.6078 214.374 33.6709C214.469 33.7655 214.469 33.9548 214.713 33.9784C214.681 33.9469 214.681 33.9153 214.681 33.8838C214.681 33.8207 214.713 33.7892 214.776 33.7892C214.839 33.7892 214.871 33.8207 214.934 33.9153C214.997 34.0415 215.091 34.073 215.218 34.1046C215.186 34.073 215.186 34.0415 215.186 34.01C215.186 33.9469 215.218 33.9153 215.281 33.9153C215.312 33.9153 215.375 33.9153 215.438 34.01C215.502 34.1361 215.565 34.1992 215.722 34.2308C215.691 34.1677 215.722 34.0415 215.817 34.0415C215.912 34.0415 216.188 34.1361 216.377 34.1992C216.377 34.696 216.684 35.2243 217.189 35.5713C217.157 35.4767 217.221 35.4136 217.284 35.4136C217.473 35.4136 217.568 35.8788 218.033 36.0996C218.001 36.005 218.064 35.9419 218.127 35.9419C218.19 35.9419 218.254 35.9734 218.285 36.005C218.687 36.2258 219.097 36.4702 219.279 36.6595C219.681 36.5333 220.335 36.1312 220.777 35.6975C220.493 35.6028 219.783 35.0745 219.499 34.7906C219.034 34.3254 218.908 33.8286 218.908 33.4501C218.908 33.3239 218.94 33.1978 218.971 33.111C219.097 33.2056 219.31 33.1741 219.405 33.0795C219.184 32.9218 219.216 32.5827 219.279 32.4565C219.405 32.5512 219.618 32.5196 219.712 32.425C219.555 32.3304 219.46 32.0544 219.555 31.8336C219.649 31.9282 219.862 31.9282 219.988 31.8336C219.831 31.6759 219.736 31.463 219.768 31.2106C219.862 31.3053 219.988 31.3368 220.107 31.2737C220.044 31.116 220.044 30.9031 220.012 30.7454C219.98 30.5246 219.917 30.2801 219.854 30.154C219.634 29.9647 218.924 29.6572 218.451 29.6572C218.388 29.6572 218.325 29.6572 218.293 29.6887C218.167 29.7203 218.072 29.7518 218.072 29.7834C218.009 29.878 217.851 29.9095 217.702 29.9411C217.733 29.8464 217.449 29.9411 217.331 30.0042M218.017 33.458C217.954 33.7655 217.796 34.2386 217.678 34.3885L217.867 34.2308L217.993 34.3885L218.12 34.2308L218.309 34.3885C218.214 34.1992 218.056 33.7655 218.025 33.458M221.447 34.9247C221.479 34.8616 221.542 34.767 221.542 34.767C221.353 34.4831 221.203 34.1756 221.234 33.8049C221.266 33.4028 221.487 33.2766 221.668 33.3082C221.826 33.3082 221.92 33.4343 221.952 33.6157C222.078 33.4895 222.141 33.3634 222.141 33.2451C222.141 33.1504 222.11 32.9927 221.92 32.9375C222.228 32.6537 222.204 32.0623 221.889 31.8493C221.92 32.2515 221.605 32.5669 221.329 32.8114C220.958 33.182 220.895 33.592 220.958 34.0257C220.737 33.592 220.619 33.182 220.651 32.7798C220.682 32.3146 220.903 31.873 221.242 31.873C221.337 31.873 221.463 31.9361 221.494 32.0307C221.652 31.7784 221.526 31.4708 221.274 31.4393C221.526 30.8164 221.116 30.1934 220.777 30.0672C220.872 30.2565 220.903 30.4379 220.903 30.6586C220.872 31.2501 220.343 31.7153 220.28 32.6221C220.217 33.5841 220.745 34.4279 221.337 35.0508C221.368 35.0508 221.4 34.9878 221.463 34.9247M219.192 34.767C219.129 35.0745 218.971 35.5161 218.853 35.6975L219.042 35.5397L219.168 35.6975L219.294 35.5397L219.484 35.6975C219.389 35.5397 219.231 35.0745 219.2 34.767M218.325 30.8716C218.356 30.8085 218.356 30.7138 218.356 30.6823C218.356 30.6508 218.356 30.5877 218.325 30.5561C218.293 30.5246 218.198 30.4931 218.104 30.4931C218.009 30.4931 217.914 30.493 217.851 30.5561C217.851 30.5877 217.82 30.6192 217.82 30.6508C217.978 30.6823 218.159 30.7138 218.317 30.8716" fill="#4F2683"/>
</g>
</svg>
