<svg width="87" height="87" viewBox="0 0 87 87" fill="none" xmlns="http://www.w3.org/2000/svg">
<path d="M13.8507 46.4497C6.82342 42.0903 2.63172 34.5667 2.63172 26.3167C2.63172 13.2577 13.2567 2.63272 26.3157 2.63272C34.5618 2.63272 42.0887 6.82802 46.4487 13.8517C46.8315 14.4689 47.6401 14.6603 48.2612 14.2775C48.8784 13.8947 49.0698 13.0822 48.687 12.465C43.8432 4.6603 35.484 0 26.32 0C11.804 0 0 11.805 0 26.316C0 35.4801 4.6602 43.843 12.465 48.683C12.6798 48.8158 12.922 48.8822 13.1564 48.8822C13.5978 48.8822 14.0275 48.6635 14.2775 48.2611C14.6603 47.6439 14.4689 46.8314 13.8517 46.4486L13.8507 46.4497Z" fill="#4F2683"/>
<path d="M26.3157 50.0008C24.6438 50.0008 22.968 49.8211 21.3313 49.4656C20.6243 49.3133 19.9211 49.7625 19.7649 50.4734C19.6126 51.1844 20.0618 51.8836 20.7727 52.0398C22.593 52.4344 24.4563 52.6375 26.3157 52.6375C40.8277 52.6375 52.6317 40.8325 52.6317 26.3215C52.6317 24.4699 52.4325 22.6027 52.0379 20.7785C51.8856 20.0675 51.1825 19.6223 50.4715 19.7707C49.7606 19.923 49.3113 20.6262 49.4637 21.3332C49.8192 22.9738 49.9989 24.6535 49.9989 26.3176C49.9989 39.3766 39.3739 50.0016 26.3149 50.0016L26.3157 50.0008Z" fill="#4F2683"/>
<path d="M69.7367 52.6338C60.307 52.6338 52.6317 60.3057 52.6317 69.7388C52.6317 79.1719 60.3036 86.8438 69.7367 86.8438C79.1664 86.8438 86.8417 79.1719 86.8417 69.7388C86.8417 60.3057 79.1698 52.6338 69.7367 52.6338ZM64.4711 83.2078V80.2664C64.4711 77.3641 66.8305 75.0047 69.7328 75.0047C72.6351 75.0047 74.9945 77.3641 74.9945 80.2664V83.2078C73.3617 83.8484 71.5883 84.2117 69.7328 84.2117C67.8734 84.2117 66.1039 83.8484 64.4711 83.2078ZM77.6311 81.8523V80.2625C77.6311 75.9109 74.0881 72.368 69.7366 72.368C65.385 72.368 61.8421 75.911 61.8421 80.2625V81.8523C57.8851 79.2664 55.264 74.8054 55.264 69.7353C55.264 61.7548 61.7562 55.2623 69.737 55.2623C77.7175 55.2623 84.21 61.7545 84.21 69.7353C84.21 74.8017 81.5842 79.2626 77.6311 81.8523Z" fill="#4F2683"/>
<path d="M69.7367 59.2119C66.8344 59.2119 64.475 61.5713 64.475 64.4736C64.475 67.3759 66.8344 69.7353 69.7367 69.7353C72.639 69.7353 74.9984 67.3759 74.9984 64.4736C74.9984 61.5713 72.639 59.2119 69.7367 59.2119ZM69.7367 67.1064C68.2875 67.1064 67.1039 65.9267 67.1039 64.4736C67.1039 63.0205 68.2836 61.8408 69.7367 61.8408C71.1859 61.8408 72.3695 63.0205 72.3695 64.4736C72.3695 65.9267 71.1898 67.1064 69.7367 67.1064Z" fill="#4F2683"/>
<path d="M45.6667 64.8607C45.1511 64.3451 44.319 64.3451 43.8073 64.8607C43.2917 65.3764 43.2917 66.2084 43.8073 66.7201L45.5104 68.4232H22.3694C20.1936 68.4232 18.4202 66.6537 18.4202 64.474V22.372C18.4202 20.1962 20.1897 18.4228 22.3694 18.4228H64.4744C66.6502 18.4228 68.4236 20.1923 68.4236 22.372V48.688C68.4236 49.4146 69.0134 50.0044 69.74 50.0044C70.4666 50.0044 71.0564 49.4146 71.0564 48.688V22.372C71.0564 18.7431 68.1033 15.7939 64.4783 15.7939L22.3693 15.79C18.7404 15.79 15.7912 18.7431 15.7912 22.3681V64.4731C15.7912 68.102 18.7443 71.0512 22.3693 71.0512H45.5103L43.8072 72.7543C43.2916 73.27 43.2916 74.102 43.8072 74.6137C44.065 74.8715 44.4009 75.0005 44.7369 75.0005C45.0728 75.0005 45.4088 74.8715 45.6666 74.6137L49.6158 70.6645C50.1314 70.1489 50.1314 69.3168 49.6158 68.8051L45.6666 64.8559L45.6667 64.8607Z" fill="#4F2683"/>
</svg>
